<?xml version="1.0" encoding="UTF-8"?>
<svg width="284px" height="61px" viewBox="0 0 284 61" version="1.1" xmlns="http://www.w3.org/2000/svg" xmlns:xlink="http://www.w3.org/1999/xlink">
    <!-- Generator: Sketch 51.3 (57544) - http://www.bohemiancoding.com/sketch -->
    <title>assessing your needs</title>
    <desc>Created with Sketch.</desc>
    <defs></defs>
    <g id="!!-Buying-Process" stroke="none" stroke-width="1" fill="none" fill-rule="evenodd">
        <g id="buying_process" transform="translate(-910.000000, -1360.000000)" stroke="#FFFFFF" stroke-width="2.34375">
            <g id="assessing-your-needs" transform="translate(913.000000, 1363.000000)">
                <path d="M167.67642,28.526638 L139.982572,1.09031221 C138.566683,-0.363437404 136.24956,-0.363437404 134.832496,1.09031221 L107.142173,28.526638 C105.722759,29.9803876 106.251514,31.1689733 108.314834,31.1689733 L114.085316,31.1689733 L114.085316,52.2413647 C114.085316,53.7660573 114.152292,55 116.931194,55 L130.372152,55 L130.372152,33.8682956 L144.440566,33.8682956 L144.440566,55 L158.554805,55 C160.673351,55 160.727402,53.7660573 160.727402,52.2413647 L160.727402,31.1689733 L166.502584,31.1689733 C168.562379,31.1689733 169.092309,29.9803876 167.67642,28.526638 Z" id="Stroke-6"></path>
                <path d="M261.478305,25.2083333 C256.965063,25.2083333 253.305746,21.6177798 253.305746,17.188759 C253.305746,12.7597381 256.965063,9.16666667 261.478305,9.16666667 C265.988983,9.16666667 269.645735,12.7597381 269.645735,17.188759 C269.645735,21.6177798 265.988983,25.2083333 261.478305,25.2083333 M261.475741,0 C251.803392,0 243.96861,7.69413009 243.96861,17.1871837 C243.96861,33.5976171 261.475741,55 261.475741,55 C261.475741,55 278.982872,33.5976171 278.982872,17.1871837 C278.982872,7.69413009 271.140357,0 261.475741,0" id="location-marker"></path>
                <path d="M19.1023645,44.7605156 C19.5132584,44.6760388 19.9139286,44.5575864 20.3050977,44.4051833 C21.061866,44.1089352 21.727075,43.6977868 22.3110282,43.1667301 C22.8751852,42.652774 23.3369489,41.9954275 23.6968277,41.1859584 C24.0483928,40.3893255 24.2296518,39.4217103 24.2296518,38.277027 C24.2296518,36.5297739 23.6598367,35.2106334 22.5055759,34.2265253 C21.5559667,33.416211 20.4231339,32.7276949 19.1023645,32.1619366 L19.1023645,44.7605156 Z M13.0230959,10.2777493 C11.9646222,10.5359591 11.0388033,11.0342199 10.2306183,11.7759675 C9.17414394,12.7456604 8.64291229,14.0885146 8.64291229,15.8848186 C8.64291229,17.5883257 9.13516796,18.81295 10.1082121,19.653261 C10.8993337,20.335643 11.8698736,20.9154982 13.0230959,21.3894376 L13.0230959,10.2777493 Z M13.3453748,30.3155929 C11.914126,29.8926615 10.5171564,29.400566 9.156612,28.8403953 C7.46733072,28.1453945 5.97513328,27.2627856 4.6884636,26.195469 C3.37734582,25.1087682 2.31448135,23.7989709 1.50431338,22.2743249 C0.670142167,20.7057262 0.261401862,18.8347036 0.261401862,16.6688888 C0.261401862,14.6453649 0.656880819,12.8089005 1.45305081,11.1679151 C2.23938208,9.54988215 3.29053823,8.17016816 4.60400705,7.03616035 C5.90047545,5.91322904 7.40570367,5.02303358 9.11575194,4.36400137 C10.4733637,3.84040323 11.8841983,3.49689223 13.3453748,3.33348289 L13.3453748,-1.171875 L19.009786,-1.171875 L19.009786,3.2316164 C21.0128853,3.37347024 23.0370644,3.787258 25.0781791,4.47096748 C27.5615077,5.30200278 29.6982613,6.58055469 31.4780465,8.30374108 L32.38119,9.17816384 L26.1050102,14.8108365 L25.32826,13.8611846 C24.4562646,12.7950863 23.3465097,11.9865324 21.9831806,11.4285399 C20.9825383,11.0185606 19.9918819,10.7455261 19.009786,10.6076703 L19.009786,23.5057637 C20.4081522,23.9872789 21.8039236,24.5155478 23.200969,25.0915856 C24.9312898,25.8079952 26.4821211,26.7163318 27.8493558,27.8169875 C29.2550525,28.9498645 30.3884056,30.324376 31.2414743,31.9323574 C32.1181663,33.5836522 32.5502316,35.5379755 32.5502316,37.7811341 C32.5502316,39.9205186 32.1582561,41.8542413 31.3689878,43.5694818 C30.5848524,45.272009 29.51037,46.728987 28.1510324,47.9301989 C26.7999982,49.1264692 25.2221062,50.0342973 23.4260217,50.6530399 C22.0119625,51.1395433 20.5389574,51.4454158 19.009786,51.5708529 L19.009786,56.171875 L13.3453748,56.171875 L13.3453748,51.5733197 C10.7250209,51.3837226 8.26970562,50.8007797 5.98396324,49.8236702 C3.36635956,48.7034844 1.08588337,47.1218981 -0.849543682,45.0849351 L-1.71649419,44.1725029 L4.98318249,38.6600104 L5.71060424,39.6920301 C6.2029579,40.3905501 6.81460579,41.0200055 7.54720013,41.5801104 C8.318887,42.1703294 9.1039479,42.6676812 9.90692983,43.0752077 C10.7038773,43.4807745 11.5029703,43.7871342 12.3055387,43.9947018 C12.6645883,44.0878097 13.0112424,44.1597624 13.3453748,44.2107734 L13.3453748,30.3155929 Z" id="VALUE" stroke-linecap="round" stroke-linejoin="round"></path>
            </g>
        </g>
    </g>
</svg>