<?xml version="1.0" encoding="UTF-8"?>
<svg width="186px" height="126px" viewBox="0 0 186 126" version="1.1" xmlns="http://www.w3.org/2000/svg" xmlns:xlink="http://www.w3.org/1999/xlink">
    <!-- Generator: Sketch 51.2 (57519) - http://www.bohemiancoding.com/sketch -->
    <title>LOGO G</title>
    <desc>Created with Sketch.</desc>
    <defs></defs>
    <g id="LOGO-G" stroke="none" stroke-width="1" fill="none" fill-rule="evenodd">
        <path d="M152.523551,76.6430801 L137.122196,37.6014946 L181.97407,35.7864842 L152.523551,76.6430801 Z M125.593978,57.5466979 L135.810885,38.3486668 L150.704906,76.3192705 L125.593978,57.5466979 Z M108.22094,88.7843676 L62.90995,53.9386837 L94.9977659,37.0010321 L123.384351,58.0591345 L108.22094,88.7843676 Z M102.624545,117.911511 L97.2671413,93.5335749 L107.43583,91.336071 L102.624545,117.911511 Z M62.0388871,55.1710464 L106.886568,89.8176241 L63.3449573,99.0980697 L62.0388871,55.1710464 Z M61.619603,99.2164855 L29.8472984,96.3839376 L11.3411443,65.9835619 L36.945779,36.0956228 L60.4655234,54.2352472 L61.619603,99.2164855 Z M36.716221,118.962583 L30.3514876,98.067957 L42.3838944,99.2363961 L36.716221,118.962583 Z M4.43763075,76.2406759 L10.2908375,67.2337394 L13.2457425,72.4366992 L4.43763075,76.2406759 Z M163.918646,25.8290775 L166.479424,34.648435 L159.879892,34.921944 L163.918646,25.8290775 Z M179.759201,7.4641487 L183.488734,34.0804583 L168.935381,34.5666966 L179.759201,7.4641487 Z M185.192076,34.1925865 L180.493997,0.964902591 L167.739373,32.9067795 L164.190133,21.775694 L157.875713,35.1158106 L135.34548,35.9373858 L124.192521,56.5071539 L95.152901,34.9649091 L61.4068163,52.7796759 L36.701546,33.7252109 L9.58434368,65.3778598 L0.564493426,79.4085606 L14.1566373,73.9331396 L28.5422765,97.5639039 L36.7277513,123.945478 L44.140695,99.3925373 L62.5629923,101.03464 L95.5784744,93.8993016 L102.711546,125.366467 L109.271247,90.9399544 L109.616108,89.963286 L124.794194,59.1049661 L152.491057,79.6506319 L185.192076,34.1925865 Z M151.490225,47.1027385 C152.524809,47.1310325 153.387486,46.314697 153.415788,45.2803926 C153.443041,44.2460882 152.627534,43.3846918 151.59295,43.3563978 C150.557318,43.3281038 149.695689,44.1433913 149.667388,45.1776957 C149.639086,46.2130481 150.455642,47.0744444 151.490225,47.1027385" id="Fill-6" fill="#D8D8D8"></path>
    </g>
</svg>
