<svg height="157" viewBox="0 0 375 157" width="375" xmlns="http://www.w3.org/2000/svg"><g fill="none" fill-rule="evenodd" stroke="#fff" stroke-width="2"><g transform="translate(1 34)"><path d="m52.3226148 67.3773088-23.6260866-23.4455875c-1.2079186-1.2422951-3.184695-1.2422951-4.3936161 0l-23.62307934 23.4455875c-1.2109259 1.2422951-.75983595 2.2579956 1.00041726 2.2579956h4.92289497v18.0073164c0 1.3029191.05713806 2.3573792 2.42786634 2.3573792h11.46670647v-18.058002h12.0019999v18.058002h12.0410943c1.8073671 0 1.8534785-1.0544601 1.8534785-2.3573792v-18.0073164h4.9269047c1.7572459 0 2.2093383-1.0157005 1.0014196-2.2579956z"/><path d="m29 25.785965c.0373709-.0141609.0745665-.0290091.1115918-.0445451.3601151-.1518264.6763256-.3623156.9559412-.636181.2680791-.263028.4915015-.6055706.6684525-1.0342247.1731276-.4225052.2640145-.9450426.2640145-1.5710142 0-.930501-.273005-1.6111777-.8198908-2.1133453-.344315-.31643-.7371868-.5992824-1.1801092-.8483621zm-4-18.58311024c-.434705.14881511-.8232853.37504637-1.1716517.67952053-.5530684.48341817-.8283483 1.14607438-.8283483 2.06385689 0 .86270892.2500696 1.45514542.7482197 1.86481782.3511722.2884518.7680453.5442809 1.2517803.7659712zm-.2096178 11.20934234c-.8025969-.2421046-1.5874414-.519678-2.3534627-.8321969-1.0490406-.4276648-1.9777162-.9719592-2.7798557-1.6312909-.8236891-.676487-1.4919851-1.4925485-2.0008033-2.4413699-.5301354-.9878052-.7883929-2.1592243-.7883929-3.5060061 0-1.25893823.24935-2.406289.7523523-3.43358773.4938161-1.00687337 1.1551338-1.8669949 1.9808554-2.57340602.810958-.69601311 1.7512557-1.24704442 2.8169841-1.65402402.7643068-.29209094 1.5556481-.49327049 2.3723228-.60353134v-2.73678419h4.0107032v2.664407c1.1485061.10292199 2.3071748.34860675 3.4736362.73577743 1.5436359.511868 2.8748727 1.30117703 3.9843612 2.36560261l.7811917.74946295-4.2651747 3.79300839-.6604593-.80012338c-.4965111-.60150578-1.1288033-1.05799194-1.9106839-1.37509171-.472169-.19169397-.9395647-.33140086-1.4028712-.41987734v7.17693835c.7857093.2722103 1.5702099.5684704 2.3555172.8893249 1.072517.4400144 2.035342.9988158 2.8852951 1.6768182.8822774.70457 1.5944225 1.5603842 2.1299366 2.5606048.5556508 1.0370682.8281657 2.2584883.8281657 3.6518283 0 1.3261947-.246227 2.529841-.743355 3.6003649-.4921662 1.05887-1.1677027 1.9665448-2.0217124 2.7143404-.8471452.7432735-1.8356738 1.3068377-2.9583454 1.6900715-.7959521.2713521-1.6216592.4513777-2.4755018.5402255v2.7863172h-4.0107032v-2.7815507c-1.5164415-.1349068-2.9435948-.4846819-4.2782395-1.0500215-1.6208632-.6873223-3.0344765-1.6587843-4.2339325-2.9096724l-.7501255-.7822906 4.5455988-3.7060657.6190428.8702626c.280416.3942142.6297774.7504735 1.0501257 1.0689247.4534292.3436445.9138528.6326765 1.3843497.8692876.4644087.2341859.9289301.4106547 1.3947161.5300239.0909863.0233795.1804769.0444127.2684644.0631161z" stroke-linecap="round" stroke-linejoin="round"/></g><g transform="translate(114 21)"><path d="m78.9775318 81.8252963-35.6620175-35.4178024c-1.8232734-1.8766585-4.8070869-1.8766585-6.6318734 0l-35.65747824 35.4178024c-1.82781269 1.8766586-1.1469222 3.4110147 1.51006379 3.4110147h7.43078485v27.202542c0 1.968239.0862461 3.561147 3.6647039 3.561147h17.3082362v-27.2791094h18.1162262v27.2791094h18.1752368c2.7281012 0 2.7977033-1.592908 2.7977033-3.561147v-27.202542h7.4368372c2.6524468 0 3.3348503-1.5343561 1.5115769-3.4110147z"/><g stroke-linecap="round" stroke-linejoin="round" transform="translate(17)"><path d="m12 25.785965c.0373709-.0141609.0745665-.0290091.1115918-.0445451.3601151-.1518264.6763256-.3623156.9559412-.636181.2680791-.263028.4915015-.6055706.6684525-1.0342247.1731276-.4225052.2640145-.9450426.2640145-1.5710142 0-.930501-.273005-1.6111777-.8198908-2.1133453-.344315-.31643-.7371868-.5992824-1.1801092-.8483621zm-4-18.58311024c-.434705.14881511-.82328531.37504637-1.17165167.67952053-.55306842.48341817-.82834833 1.14607438-.82834833 2.06385689 0 .86270892.25006955 1.45514542.74821971 1.86481782.35117219.2884518.76804531.5442809 1.25178029.7659712zm-.20961785 11.20934234c-.8025969-.2421046-1.58744135-.519678-2.35346263-.8321969-1.04904066-.4276648-1.9777162-.9719592-2.77985572-1.6312909-.82368907-.676487-1.49198507-1.4925485-2.0008033-2.4413699-.53013537-.9878052-.78839286-2.1592243-.78839286-3.5060061 0-1.25893823.24934991-2.406289.75235231-3.43358773.49381605-1.00687337 1.15513373-1.8669949 1.98085539-2.57340602.81095792-.69601311 1.7512557-1.24704442 2.8169841-1.65402402.7643068-.29209094 1.55564804-.49327049 2.37232271-.60353134v-2.73678419h4.01070325v2.664407c1.1485061.10292199 2.3071748.34860675 3.4736362.73577743 1.5436359.511868 2.8748727 1.30117703 3.9843612 2.36560261l.7811917.74946295-4.2651747 3.79300839-.6604593-.80012338c-.4965111-.60150578-1.1288033-1.05799194-1.9106839-1.37509171-.472169-.19169397-.9395647-.33140086-1.4028712-.41987734v7.17693835c.7857093.2722103 1.5702099.5684704 2.3555172.8893249 1.072517.4400144 2.035342.9988158 2.8852951 1.6768182.8822774.70457 1.5944225 1.5603842 2.1299366 2.5606048.5556508 1.0370682.8281657 2.2584883.8281657 3.6518283 0 1.3261947-.246227 2.529841-.743355 3.6003649-.4921662 1.05887-1.1677027 1.9665448-2.0217124 2.7143404-.8471452.7432735-1.8356738 1.3068377-2.9583454 1.6900715-.7959521.2713521-1.6216592.4513777-2.4755018.5402255v2.7863172h-4.01070325v-2.7815507c-1.51644145-.1349068-2.94359476-.4846819-4.2782394-1.0500215-1.62086327-.6873223-3.03447659-1.6587843-4.23393256-2.9096724l-.75012549-.7822906 4.54559875-3.7060657.61904288.8702626c.28041595.3942142.62977741.7504735 1.05012566 1.0689247.45342918.3436445.91385286.6326765 1.38434974.8692876.46440868.2341859.92893009.4106547 1.39471604.5300239.09098638.0233795.18047689.0444127.26846438.0631161z"/><path d="m40 25.785965c.0373709-.0141609.0745665-.0290091.1115918-.0445451.3601151-.1518264.6763256-.3623156.9559412-.636181.2680791-.263028.4915015-.6055706.6684525-1.0342247.1731276-.4225052.2640145-.9450426.2640145-1.5710142 0-.930501-.273005-1.6111777-.8198908-2.1133453-.344315-.31643-.7371868-.5992824-1.1801092-.8483621zm-4-18.58311024c-.434705.14881511-.8232853.37504637-1.1716517.67952053-.5530684.48341817-.8283483 1.14607438-.8283483 2.06385689 0 .86270892.2500696 1.45514542.7482197 1.86481782.3511722.2884518.7680453.5442809 1.2517803.7659712zm-.2096178 11.20934234c-.8025969-.2421046-1.5874414-.519678-2.3534627-.8321969-1.0490406-.4276648-1.9777162-.9719592-2.7798557-1.6312909-.8236891-.676487-1.4919851-1.4925485-2.0008033-2.4413699-.5301354-.9878052-.7883929-2.1592243-.7883929-3.5060061 0-1.25893823.24935-2.406289.7523523-3.43358773.4938161-1.00687337 1.1551338-1.8669949 1.9808554-2.57340602.810958-.69601311 1.7512557-1.24704442 2.8169841-1.65402402.7643068-.29209094 1.5556481-.49327049 2.3723228-.60353134v-2.73678419h4.0107032v2.664407c1.1485061.10292199 2.3071748.34860675 3.4736362.73577743 1.5436359.511868 2.8748727 1.30117703 3.9843612 2.36560261l.7811917.74946295-4.2651747 3.79300839-.6604593-.80012338c-.4965111-.60150578-1.1288033-1.05799194-1.9106839-1.37509171-.472169-.19169397-.9395647-.33140086-1.4028712-.41987734v7.17693835c.7857093.2722103 1.5702099.5684704 2.3555172.8893249 1.072517.4400144 2.035342.9988158 2.8852951 1.6768182.8822774.70457 1.5944225 1.5603842 2.1299366 2.5606048.5556508 1.0370682.8281657 2.2584883.8281657 3.6518283 0 1.3261947-.246227 2.529841-.743355 3.6003649-.4921662 1.05887-1.1677027 1.9665448-2.0217124 2.7143404-.8471452.7432735-1.8356738 1.3068377-2.9583454 1.6900715-.7959521.2713521-1.6216592.4513777-2.4755018.5402255v2.7863172h-4.0107032v-2.7815507c-1.5164415-.1349068-2.9435948-.4846819-4.2782395-1.0500215-1.6208632-.6873223-3.0344765-1.6587843-4.2339325-2.9096724l-.7501255-.7822906 4.5455988-3.7060657.6190428.8702626c.280416.3942142.6297774.7504735 1.0501257 1.0689247.4534292.3436445.9138528.6326765 1.3843497.8692876.4644087.2341859.9289301.4106547 1.3947161.5300239.0909863.0233795.1804769.0444127.2684644.0631161z"/></g></g><g transform="translate(254 2)"><path d="m118.466298 102.497278-53.4930266-53.3761252c-2.7349101-2.8282037-7.2106302-2.8282037-9.94781 0l-53.48621741 53.3761252c-2.74171903 2.828203-1.7203833 5.140543 2.26509569 5.140543h11.14617732v40.995379c0 2.966221.1293691 5.3668 5.4970558 5.3668h25.9623543v-41.11077h27.1743394v41.11077h27.2628555c4.092151 0 4.196555-2.400579 4.196555-5.3668v-40.995379h11.155255c3.978671 0 5.002276-2.31234 2.267366-5.140543z"/><g stroke-linecap="round" stroke-linejoin="round" transform="translate(22)"><path d="m12 25.785965c.0373709-.0141609.0745665-.0290091.1115918-.0445451.3601151-.1518264.6763256-.3623156.9559412-.636181.2680791-.263028.4915015-.6055706.6684525-1.0342247.1731276-.4225052.2640145-.9450426.2640145-1.5710142 0-.930501-.273005-1.6111777-.8198908-2.1133453-.344315-.31643-.7371868-.5992824-1.1801092-.8483621zm-4-18.58311024c-.434705.14881511-.82328531.37504637-1.17165167.67952053-.55306842.48341817-.82834833 1.14607438-.82834833 2.06385689 0 .86270892.25006955 1.45514542.74821971 1.86481782.35117219.2884518.76804531.5442809 1.25178029.7659712zm-.20961785 11.20934234c-.8025969-.2421046-1.58744135-.519678-2.35346263-.8321969-1.04904066-.4276648-1.9777162-.9719592-2.77985572-1.6312909-.82368907-.676487-1.49198507-1.4925485-2.0008033-2.4413699-.53013537-.9878052-.78839286-2.1592243-.78839286-3.5060061 0-1.25893823.24934991-2.406289.75235231-3.43358773.49381605-1.00687337 1.15513373-1.8669949 1.98085539-2.57340602.81095792-.69601311 1.7512557-1.24704442 2.8169841-1.65402402.7643068-.29209094 1.55564804-.49327049 2.37232271-.60353134v-2.73678419h4.01070325v2.664407c1.1485061.10292199 2.3071748.34860675 3.4736362.73577743 1.5436359.511868 2.8748727 1.30117703 3.9843612 2.36560261l.7811917.74946295-4.2651747 3.79300839-.6604593-.80012338c-.4965111-.60150578-1.1288033-1.05799194-1.9106839-1.37509171-.472169-.19169397-.9395647-.33140086-1.4028712-.41987734v7.17693835c.7857093.2722103 1.5702099.5684704 2.3555172.8893249 1.072517.4400144 2.035342.9988158 2.8852951 1.6768182.8822774.70457 1.5944225 1.5603842 2.1299366 2.5606048.5556508 1.0370682.8281657 2.2584883.8281657 3.6518283 0 1.3261947-.246227 2.529841-.743355 3.6003649-.4921662 1.05887-1.1677027 1.9665448-2.0217124 2.7143404-.8471452.7432735-1.8356738 1.3068377-2.9583454 1.6900715-.7959521.2713521-1.6216592.4513777-2.4755018.5402255v2.7863172h-4.01070325v-2.7815507c-1.51644145-.1349068-2.94359476-.4846819-4.2782394-1.0500215-1.62086327-.6873223-3.03447659-1.6587843-4.23393256-2.9096724l-.75012549-.7822906 4.54559875-3.7060657.61904288.8702626c.28041595.3942142.62977741.7504735 1.05012566 1.0689247.45342918.3436445.91385286.6326765 1.38434974.8692876.46440868.2341859.92893009.4106547 1.39471604.5300239.09098638.0233795.18047689.0444127.26846438.0631161z"/><path d="m41 25.785965c.0373709-.0141609.0745665-.0290091.1115918-.0445451.3601151-.1518264.6763256-.3623156.9559412-.636181.2680791-.263028.4915015-.6055706.6684525-1.0342247.1731276-.4225052.2640145-.9450426.2640145-1.5710142 0-.930501-.273005-1.6111777-.8198908-2.1133453-.344315-.31643-.7371868-.5992824-1.1801092-.8483621zm-4-18.58311024c-.434705.14881511-.8232853.37504637-1.1716517.67952053-.5530684.48341817-.8283483 1.14607438-.8283483 2.06385689 0 .86270892.2500696 1.45514542.7482197 1.86481782.3511722.2884518.7680453.5442809 1.2517803.7659712zm-.2096178 11.20934234c-.8025969-.2421046-1.5874414-.519678-2.3534627-.8321969-1.0490406-.4276648-1.9777162-.9719592-2.7798557-1.6312909-.8236891-.676487-1.4919851-1.4925485-2.0008033-2.4413699-.5301354-.9878052-.7883929-2.1592243-.7883929-3.5060061 0-1.25893823.24935-2.406289.7523523-3.43358773.4938161-1.00687337 1.1551338-1.8669949 1.9808554-2.57340602.810958-.69601311 1.7512557-1.24704442 2.8169841-1.65402402.7643068-.29209094 1.5556481-.49327049 2.3723228-.60353134v-2.73678419h4.0107032v2.664407c1.1485061.10292199 2.3071748.34860675 3.4736362.73577743 1.5436359.511868 2.8748727 1.30117703 3.9843612 2.36560261l.7811917.74946295-4.2651747 3.79300839-.6604593-.80012338c-.4965111-.60150578-1.1288033-1.05799194-1.9106839-1.37509171-.472169-.19169397-.9395647-.33140086-1.4028712-.41987734v7.17693835c.7857093.2722103 1.5702099.5684704 2.3555172.8893249 1.072517.4400144 2.035342.9988158 2.8852951 1.6768182.8822774.70457 1.5944225 1.5603842 2.1299366 2.5606048.5556508 1.0370682.8281657 2.2584883.8281657 3.6518283 0 1.3261947-.246227 2.529841-.743355 3.6003649-.4921662 1.05887-1.1677027 1.9665448-2.0217124 2.7143404-.8471452.7432735-1.8356738 1.3068377-2.9583454 1.6900715-.7959521.2713521-1.6216592.4513777-2.4755018.5402255v2.7863172h-4.0107032v-2.7815507c-1.5164415-.1349068-2.9435948-.4846819-4.2782395-1.0500215-1.6208632-.6873223-3.0344765-1.6587843-4.2339325-2.9096724l-.7501255-.7822906 4.5455988-3.7060657.6190428.8702626c.280416.3942142.6297774.7504735 1.0501257 1.0689247.4534292.3436445.9138528.6326765 1.3843497.8692876.4644087.2341859.9289301.4106547 1.3947161.5300239.0909863.0233795.1804769.0444127.2684644.0631161z"/><path d="m70 25.785965c.0373709-.0141609.0745665-.0290091.1115918-.0445451.3601151-.1518264.6763256-.3623156.9559412-.636181.2680791-.263028.4915015-.6055706.6684525-1.0342247.1731276-.4225052.2640145-.9450426.2640145-1.5710142 0-.930501-.273005-1.6111777-.8198908-2.1133453-.344315-.31643-.7371868-.5992824-1.1801092-.8483621zm-4-18.58311024c-.434705.14881511-.8232853.37504637-1.1716517.67952053-.5530684.48341817-.8283483 1.14607438-.8283483 2.06385689 0 .86270892.2500696 1.45514542.7482197 1.86481782.3511722.2884518.7680453.5442809 1.2517803.7659712zm-.2096178 11.20934234c-.8025969-.2421046-1.5874414-.519678-2.3534627-.8321969-1.0490406-.4276648-1.9777162-.9719592-2.7798557-1.6312909-.8236891-.676487-1.4919851-1.4925485-2.0008033-2.4413699-.5301354-.9878052-.7883929-2.1592243-.7883929-3.5060061 0-1.25893823.24935-2.406289.7523523-3.43358773.4938161-1.00687337 1.1551338-1.8669949 1.9808554-2.57340602.810958-.69601311 1.7512557-1.24704442 2.8169841-1.65402402.7643068-.29209094 1.5556481-.49327049 2.3723228-.60353134v-2.73678419h4.0107032v2.664407c1.1485061.10292199 2.3071748.34860675 3.4736362.73577743 1.5436359.511868 2.8748727 1.30117703 3.9843612 2.36560261l.7811917.74946295-4.2651747 3.79300839-.6604593-.80012338c-.4965111-.60150578-1.1288033-1.05799194-1.9106839-1.37509171-.472169-.19169397-.9395647-.33140086-1.4028712-.41987734v7.17693835c.7857093.2722103 1.5702099.5684704 2.3555172.8893249 1.072517.4400144 2.035342.9988158 2.8852951 1.6768182.8822774.70457 1.5944225 1.5603842 2.1299366 2.5606048.5556508 1.0370682.8281657 2.2584883.8281657 3.6518283 0 1.3261947-.246227 2.529841-.743355 3.6003649-.4921662 1.05887-1.1677027 1.9665448-2.0217124 2.7143404-.8471452.7432735-1.8356738 1.3068377-2.9583454 1.6900715-.7959521.2713521-1.6216592.4513777-2.4755018.5402255v2.7863172h-4.0107032v-2.7815507c-1.5164415-.1349068-2.9435948-.4846819-4.2782395-1.0500215-1.6208632-.6873223-3.0344765-1.6587843-4.2339325-2.9096724l-.7501255-.7822906 4.5455988-3.7060657.6190428.8702626c.280416.3942142.6297774.7504735 1.0501257 1.0689247.4534292.3436445.9138528.6326765 1.3843497.8692876.4644087.2341859.9289301.4106547 1.3947161.5300239.0909863.0233795.1804769.0444127.2684644.0631161z"/></g></g></g></svg>