<?xml version="1.0" encoding="UTF-8"?>
<svg width="470px" height="61px" viewBox="0 0 470 61" version="1.1" xmlns="http://www.w3.org/2000/svg" xmlns:xlink="http://www.w3.org/1999/xlink">
    <!-- Generator: Sketch 51.3 (57544) - http://www.bohemiancoding.com/sketch -->
    <title>property types KO</title>
    <desc>Created with Sketch.</desc>
    <defs></defs>
    <g id="!!-Buying-Process" stroke="none" stroke-width="1" fill="none" fill-rule="evenodd">
        <g id="buying_process" transform="translate(-136.000000, -2617.000000)" fill="#FFFFFF" stroke="#FFFFFF">
            <g id="property-types-KO" transform="translate(137.000000, 2617.000000)">
                <path d="M41.6230839,43.8007298 L48.3791704,43.8007298 L48.3791704,48.1142313 C48.3791704,48.2297319 48.3656447,48.3252419 48.3476105,48.3985404 L41.6523895,48.3985404 C41.6366096,48.3252419 41.6230839,48.2297319 41.6230839,48.1142313 L41.6230839,43.8007298 Z M41.6230839,37.8835475 C41.6230839,37.7702681 41.6366096,37.6747581 41.6523895,37.5992385 L48.3476105,37.5992385 C48.3656447,37.6747581 48.3791704,37.7702681 48.3791704,37.8835475 L48.3791704,42.1992702 L41.6230839,42.1992702 L41.6230839,37.8835475 Z M41.3367899,50 L48.6632101,50 C49.4522092,50 50,49.2225924 50,48.1142313 L50,37.8835475 C50,36.7929557 49.4386835,36 48.6632101,36 L41.3367899,36 C40.5500451,36 40,36.7751864 40,37.8835475 L40,48.1142313 C40,49.2225924 40.5500451,50 41.3367899,50 Z M2.78793103,27.8590571 L29.2768966,2.6187 L56.2603448,27.8590571 L2.78793103,27.8590571 Z M54.2824138,56.5069143 L35.0617241,56.5069143 L35.0617241,36.7827714 C35.0617241,36.3705571 34.7286207,36.0370571 34.3168966,36.0370571 L24.7603448,36.0370571 C24.3486207,36.0370571 24.0155172,36.3705571 24.0155172,36.7827714 L24.0155172,56.5069143 L4.26517241,56.5069143 L4.26517241,29.3504857 L54.2824138,29.3504857 L54.2824138,56.5069143 Z M25.5051724,56.2832 L33.572069,56.2832 L33.572069,37.5284857 L25.5051724,37.5284857 L25.5051724,56.2832 Z M58.8382759,28.2298429 L29.8458621,1.10862857 C29.7093103,0.9802 29.3968966,0.909771429 29.2086207,0.909771429 C29.0162069,0.909771429 28.832069,0.982271429 28.6934483,1.11484286 L0.232758621,28.2360571 C0.0113793103,28.4452714 -0.0589655172,28.7684143 0.0527586207,29.0522 C0.166551724,29.3359857 0.439655172,29.5203429 0.745862069,29.5203429 L2.77551724,29.5203429 L2.77551724,56.7927714 C2.77551724,57.4577 3.26793103,58.0004143 3.8762069,58.0004143 L54.6713793,58.0004143 C55.2775862,58.0004143 55.77,57.4577 55.77,56.7927714 L55.77,29.5203429 L58.3313793,29.5203429 C58.6375862,29.5203429 58.9106897,29.3339143 59.0244828,29.0501286 C59.1362069,28.7642714 59.0637931,28.4390571 58.8382759,28.2298429 Z M31.374,47.75 C31.858,47.75 32.248,47.358 32.248,46.876 C32.248,46.39 31.858,46 31.374,46 C30.89,46 30.5,46.39 30.5,46.876 C30.5,47.358 30.89,47.75 31.374,47.75 M11.6230839,42.6898421 L18.3791704,42.6898421 L18.3791704,46.383033 C18.3791704,46.476798 18.3656447,46.5590815 18.3498647,46.6222293 L11.6523895,46.6222293 C11.6366096,46.5590815 11.6230839,46.476798 11.6230839,46.383033 L11.6230839,42.6898421 Z M11.6230839,37.616967 C11.6230839,37.5212885 11.6366096,37.4390049 11.6523895,37.3777707 L18.3476105,37.3777707 C18.3656447,37.4390049 18.3791704,37.5212885 18.3791704,37.616967 L18.3791704,41.3101579 L11.6230839,41.3101579 L11.6230839,37.616967 Z M11.3367899,48 L18.6632101,48 C19.4386835,48 20,47.3206825 20,46.383033 L20,37.616967 C20,36.6793175 19.4386835,36 18.6632101,36 L11.3367899,36 C10.5613165,36 10,36.6793175 10,37.616967 L10,46.383033 C10,47.3359911 10.5500451,48 11.3367899,48 Z" id="house-KO" stroke-width="0.25"></path>
                <path d="M208.178,25.508 L213.82,25.508 L213.82,21.856 L208.178,21.856 L208.178,25.508 Z M214.062,20.5 L207.94,20.5 C207.324,20.5 206.82,21 206.82,21.614 L206.82,25.748 C206.82,26.362 207.324,26.864 207.94,26.864 L214.062,26.864 C214.678,26.864 215.178,26.362 215.178,25.748 L215.178,21.614 C215.178,21 214.678,20.5 214.062,20.5 Z M189.358,37.006 L194.998,37.006 L194.998,33.354 L189.358,33.354 L189.358,37.006 Z M189.118,38.364 L195.238,38.364 C195.854,38.364 196.356,37.864 196.356,37.248 L196.356,33.116 C196.356,32.502 195.854,32 195.238,32 L189.118,32 C188.502,32 188,32.502 188,33.116 L188,37.248 C188,37.864 188.502,38.364 189.118,38.364 Z M178.054,37.006 L183.698,37.006 L183.698,33.354 L178.054,33.354 L178.054,37.006 Z M177.816,38.364 L183.936,38.364 C184.552,38.364 185.054,37.864 185.054,37.248 L185.054,33.116 C185.054,32.502 184.552,32 183.936,32 L177.816,32 C177.2,32 176.7,32.502 176.7,33.116 L176.7,37.248 C176.7,37.864 177.2,38.364 177.816,38.364 Z M178.054,49.008 L183.698,49.008 L183.698,45.358 L178.054,45.358 L178.054,49.008 Z M177.816,50.366 L183.936,50.366 C184.552,50.366 185.054,49.866 185.054,49.25 L185.054,45.118 C185.054,44.5 184.552,44 183.936,44 L177.816,44 C177.2,44 176.7,44.5 176.7,45.118 L176.7,49.25 C176.7,49.866 177.2,50.366 177.816,50.366 Z M189.358,25.508 L194.998,25.508 L194.998,21.856 L189.358,21.856 L189.358,25.508 Z M189.118,26.864 L195.238,26.864 C195.854,26.864 196.356,26.362 196.356,25.748 L196.356,21.614 C196.356,21 195.854,20.5 195.238,20.5 L189.118,20.5 C188.502,20.5 188,21 188,21.614 L188,25.748 C188,26.362 188.502,26.864 189.118,26.864 Z M231.956,58.13 L215.18,58.13 L215.18,43.798 C215.18,43.422 214.876,43.12 214.5,43.12 L207.504,43.12 C207.13,43.12 206.826,43.422 206.826,43.798 L206.826,58.13 L202.334,58.13 L202.334,3.994 L231.836,30.28 L231.956,30.386 L231.956,58.13 Z M208.184,57.926 L213.824,57.926 L213.824,44.476 L208.184,44.476 L208.184,57.926 Z M200.978,58.13 L196.486,58.13 L196.486,43.798 C196.486,43.422 196.182,43.12 195.808,43.12 L188.812,43.12 C188.436,43.12 188.132,43.422 188.132,43.798 L188.132,58.13 L171.356,58.13 L171.356,30.386 L200.978,3.994 L200.978,58.13 Z M189.49,57.926 L195.128,57.926 L195.128,44.476 L189.49,44.476 L189.49,57.926 Z M202.604,2.42 L202.468,2.296 C202.268,2.12 201.99,2 201.658,2 C201.324,2 201.044,2.12 200.868,2.292 L170.676,29.176 C170.274,29.35 170,29.762 170,30.228 L170,58.344 C170,58.974 170.494,59.488 171.102,59.488 L201.238,59.488 C201.386,59.488 201.526,59.454 201.658,59.4 C201.786,59.454 201.928,59.488 202.078,59.488 L232.21,59.488 C232.818,59.488 233.312,58.974 233.312,58.344 L233.312,30.228 C233.312,29.76 233.038,29.35 232.636,29.176 L202.604,2.42 Z M208.18,36.7802 L213.822,36.7802 L213.822,33.1282 L208.18,33.1282 L208.18,36.7802 Z M214.064,31.7722 L207.942,31.7722 C207.326,31.7722 206.822,32.2742 206.822,32.8882 L206.822,37.0202 C206.822,37.6362 207.326,38.1362 207.942,38.1362 L214.064,38.1362 C214.68,38.1362 215.18,37.6362 215.18,37.0202 L215.18,32.8882 C215.18,32.2742 214.68,31.7722 214.064,31.7722 Z M219.358,37.008 L225,37.008 L225,33.356 L219.358,33.356 L219.358,37.008 Z M225.24,32 L219.116,32 C218.5,32 218,32.502 218,33.116 L218,37.248 C218,37.864 218.5,38.364 219.116,38.364 L225.24,38.364 C225.856,38.364 226.356,37.864 226.356,37.248 L226.356,33.116 C226.356,32.502 225.856,32 225.24,32 Z M219.358,49.008 L225,49.008 L225,45.358 L219.358,45.358 L219.358,49.008 Z M225.24,44 C225.856,44 226.356,44.5 226.356,45.118 L226.356,49.25 C226.356,49.866 225.856,50.366 225.24,50.366 L219.116,50.366 C218.5,50.366 218,49.866 218,49.25 L218,45.118 C218,44.5 218.5,44 219.116,44 L225.24,44 Z M193.874,51.438 C193.874,51.679 193.679,51.875 193.437,51.875 C193.195,51.875 193,51.679 193,51.438 C193,51.195 193.195,51 193.437,51 C193.679,51 193.874,51.195 193.874,51.438 Z M210.374,51.438 C210.374,51.679 210.179,51.875 209.937,51.875 C209.695,51.875 209.5,51.679 209.5,51.438 C209.5,51.195 209.695,51 209.937,51 C210.179,51 210.374,51.195 210.374,51.438 Z" id="duplex-KO" stroke-width="0.25"></path>
                <path d="M105.128202,25.495301 L110.713267,25.495301 L110.713267,21.7955826 L105.128202,21.7955826 L105.128202,25.495301 Z M110.951436,20.4221561 L104.892018,20.4221561 C104.282702,20.4221561 103.786516,20.9280484 103.786516,21.5517791 L103.786516,25.7391045 C103.786516,26.3608035 104.282702,26.8666958 104.892018,26.8666958 L110.951436,26.8666958 C111.558767,26.8666958 112.054953,26.3608035 112.054953,25.7391045 L112.054953,21.5517791 C112.054953,20.9280484 111.558767,20.4221561 110.951436,20.4221561 Z M128.658314,58.6245418 L112.055945,58.6245418 L112.055945,44.1060424 C112.055945,43.7240836 111.752279,43.4172975 111.385102,43.4172975 L104.458351,43.4172975 C104.087205,43.4172975 103.787509,43.7240836 103.787509,44.1060424 L103.787509,58.6245418 L99.3416858,58.6245418 L99.278174,3.7179582 L128.541214,30.4083482 L128.658314,30.5139964 L128.658314,58.6245418 Z M105.129194,58.4173088 L110.714259,58.4173088 L110.714259,44.790724 L105.129194,44.790724 L105.129194,58.4173088 Z M99.6076413,2.18199604 L99.4726788,2.05603089 L99.294052,2.02149206 C98.9526763,1.9524144 98.6192396,2.0519675 98.3671773,2.28967593 C98.1329777,2.51113079 98,2.82604367 98,3.15314672 L98,58.8419333 C98,59.4798858 98.4882466,60 99.0876388,60 L128.912361,60 C129.513738,60 130,59.4798858 130,58.8419333 L130,30.3575558 C130,29.8841706 129.72809,29.4676729 129.335111,29.2909154 L99.6076413,2.18199604 Z M106.874,51.438 C106.874,51.195 106.679,51 106.437,51 C106.195,51 106,51.195 106,51.438 C106,51.679 106.195,51.875 106.437,51.875 C106.679,51.875 106.874,51.679 106.874,51.438 Z M105.128202,36.9926685 L110.713267,36.9926685 L110.713267,33.2929501 L105.128202,33.2929501 L105.128202,36.9926685 Z M110.951436,31.9195236 L104.892018,31.9195236 C104.282702,31.9195236 103.786516,32.4254159 103.786516,33.0491466 L103.786516,37.236472 C103.786516,37.8622344 104.282702,38.3681267 104.892018,38.3681267 L110.951436,38.3681267 C111.558767,38.3681267 112.054953,37.8622344 112.054953,37.236472 L112.054953,33.0491466 C112.054953,32.4254159 111.558767,31.9195236 110.951436,31.9195236 Z M117.290703,36.9926685 L122.873783,36.9926685 L122.873783,33.2929501 L117.290703,33.2929501 L117.290703,36.9926685 Z M123.111952,31.9195236 L117.054518,31.9195236 C116.443218,31.9195236 115.947032,32.4254159 115.947032,33.0491466 L115.947032,37.236472 C115.947032,37.8622344 116.443218,38.3681267 117.054518,38.3681267 L123.111952,38.3681267 C123.719283,38.3681267 124.217453,37.8622344 124.217453,37.236472 L124.217453,33.0491466 C124.217453,32.4254159 123.719283,31.9195236 123.111952,31.9195236 Z M117.290703,48.4920677 L122.873783,48.4920677 L122.873783,44.7923493 L117.290703,44.7923493 L117.290703,48.4920677 Z M123.111952,43.4168911 L117.054518,43.4168911 C116.443218,43.4168911 115.947032,43.9248151 115.947032,44.5485458 L115.947032,48.7358712 C115.947032,49.3596019 116.443218,49.8675259 117.054518,49.8675259 L123.111952,49.8675259 C123.719283,49.8675259 124.217453,49.3596019 124.217453,48.7358712 L124.217453,44.5485458 C124.217453,43.9248151 123.719283,43.4168911 123.111952,43.4168911 Z" id="half-duplex-KO" stroke-width="0.25"></path>
                <path d="M303.510735,16.0469307 L309.486949,16.0469307 L309.486949,12.3597352 L303.510735,12.3597352 L303.510735,16.0469307 Z M309.985476,17.0380036 L303.012209,17.0380036 C302.737511,17.0380036 302.513682,16.8155178 302.513682,16.5424671 L302.513682,11.8641988 C302.513682,11.5911481 302.737511,11.3686624 303.012209,11.3686624 L309.985476,11.3686624 C310.260174,11.3686624 310.484002,11.5911481 310.484002,11.8641988 L310.484002,16.5424671 C310.484002,16.8155178 310.260174,17.0380036 309.985476,17.0380036 Z M303.510735,25.5005521 L309.486949,25.5005521 L309.486949,21.8133566 L303.510735,21.8133566 L303.510735,25.5005521 Z M309.985476,26.4916249 L303.012209,26.4916249 C302.737511,26.4916249 302.513682,26.2711618 302.513682,25.9960885 L302.513682,21.3178202 C302.513682,21.0447695 302.737511,20.8222837 303.012209,20.8222837 L309.985476,20.8222837 C310.260174,20.8222837 310.484002,21.0447695 310.484002,21.3178202 L310.484002,25.9960885 C310.484002,26.2711618 310.260174,26.4916249 309.985476,26.4916249 Z M317.780803,25.5005521 L323.754982,25.5005521 L323.754982,21.8133566 L317.780803,21.8133566 L317.780803,25.5005521 Z M324.253508,26.4916249 L317.282276,26.4916249 C317.005543,26.4916249 316.78375,26.2711618 316.78375,25.9960885 L316.78375,21.3178202 C316.78375,21.0447695 317.005543,20.8222837 317.282276,20.8222837 L324.253508,20.8222837 C324.530241,20.8222837 324.75407,21.0447695 324.75407,21.3178202 L324.75407,25.9960885 C324.75407,26.2711618 324.530241,26.4916249 324.253508,26.4916249 Z M303.510735,34.9541734 L309.486949,34.9541734 L309.486949,31.2669779 L303.510735,31.2669779 L303.510735,34.9541734 Z M309.985476,35.9452463 L303.012209,35.9452463 C302.737511,35.9452463 302.513682,35.7227605 302.513682,35.4497099 L302.513682,30.7714415 C302.513682,30.4983908 302.737511,30.2759051 303.012209,30.2759051 L309.985476,30.2759051 C310.260174,30.2759051 310.484002,30.4983908 310.484002,30.7714415 L310.484002,35.4497099 C310.484002,35.7227605 310.260174,35.9452463 309.985476,35.9452463 Z M317.780803,34.9541734 L323.754982,34.9541734 L323.754982,31.2669779 L317.780803,31.2669779 L317.780803,34.9541734 Z M324.253508,35.9452463 L317.282276,35.9452463 C317.005543,35.9452463 316.78375,35.7227605 316.78375,35.4497099 L316.78375,30.7714415 C316.78375,30.4983908 317.005543,30.2759051 317.282276,30.2759051 L324.253508,30.2759051 C324.530241,30.2759051 324.75407,30.4983908 324.75407,30.7714415 L324.75407,35.4497099 C324.75407,35.7227605 324.530241,35.9452463 324.253508,35.9452463 Z M303.510735,44.4077948 L309.486949,44.4077948 L309.486949,40.7205993 L303.510735,40.7205993 L303.510735,44.4077948 Z M309.985476,45.3988676 L303.012209,45.3988676 C302.737511,45.3988676 302.513682,45.1763819 302.513682,44.9033312 L302.513682,40.2250629 C302.513682,39.9520122 302.737511,39.7295265 303.012209,39.7295265 L309.985476,39.7295265 C310.260174,39.7295265 310.484002,39.9520122 310.484002,40.2250629 L310.484002,44.9033312 C310.484002,45.1763819 310.260174,45.3988676 309.985476,45.3988676 Z M317.766559,44.4077948 L323.742773,44.4077948 L323.742773,40.7205993 L317.766559,40.7205993 L317.766559,44.4077948 Z M324.241299,45.3988676 L317.268033,45.3988676 C316.993334,45.3988676 316.769506,45.1763819 316.769506,44.9033312 L316.769506,40.2250629 C316.769506,39.9520122 316.993334,39.7295265 317.268033,39.7295265 L324.241299,39.7295265 C324.515998,39.7295265 324.739826,39.9520122 324.739826,40.2250629 L324.739826,44.9033312 C324.739826,45.1763819 324.515998,45.3988676 324.241299,45.3988676 Z M303.510735,53.8614162 L309.486949,53.8614162 L309.486949,50.1742207 L303.510735,50.1742207 L303.510735,53.8614162 Z M309.985476,54.852489 L303.012209,54.852489 C302.737511,54.852489 302.513682,54.6300033 302.513682,54.3569526 L302.513682,49.6786843 C302.513682,49.4056336 302.737511,49.1831478 303.012209,49.1831478 L309.985476,49.1831478 C310.260174,49.1831478 310.484002,49.4056336 310.484002,49.6786843 L310.484002,54.3569526 C310.484002,54.6300033 310.260174,54.852489 309.985476,54.852489 Z M317.780803,53.8614162 L323.754982,53.8614162 L323.754982,50.1742207 L317.780803,50.1742207 L317.780803,53.8614162 Z M324.253508,54.852489 L317.282276,54.852489 C317.005543,54.852489 316.78375,54.6300033 316.78375,54.3569526 L316.78375,49.6786843 C316.78375,49.4056336 317.005543,49.1831478 317.282276,49.1831478 L324.253508,49.1831478 C324.530241,49.1831478 324.75407,49.4056336 324.75407,49.6786843 L324.75407,54.3569526 C324.75407,54.6300033 324.530241,54.852489 324.253508,54.852489 Z M296.264805,59.0069046 L331.000912,59.0069046 L331.000912,9.49371437 L296.264805,3.09219285 L296.264805,59.0069046 Z M331.499439,60 L295.764244,60 C295.489545,60 295.265717,59.7775143 295.265717,59.502441 L295.265717,2.49552654 C295.265717,2.34787692 295.332866,2.21034028 295.446814,2.11527819 C295.560763,2.0202161 295.709304,1.98178674 295.85581,2.00808051 L331.591005,8.59365842 C331.829077,8.63613297 332,8.84243793 332,9.08110445 L332,59.502441 C332,59.7775143 331.776172,60 331.499439,60 Z M279.96604,25.5187555 L285.940219,25.5187555 L285.940219,21.83156 L279.96604,21.83156 L279.96604,25.5187555 Z M286.438745,26.5098283 L279.467513,26.5098283 C279.19078,26.5098283 278.966952,26.2873426 278.966952,26.0142919 L278.966952,21.3360235 C278.966952,21.0609503 279.19078,20.8404871 279.467513,20.8404871 L286.438745,20.8404871 C286.715479,20.8404871 286.939307,21.0609503 286.939307,21.3360235 L286.939307,26.0142919 C286.939307,26.2873426 286.715479,26.5098283 286.438745,26.5098283 Z M279.96604,34.9723768 L285.940219,34.9723768 L285.940219,31.2851813 L279.96604,31.2851813 L279.96604,34.9723768 Z M286.438745,35.9634497 L279.467513,35.9634497 C279.19078,35.9634497 278.966952,35.7409639 278.966952,35.4679132 L278.966952,30.7896449 C278.966952,30.5145716 279.19078,30.2941085 279.467513,30.2941085 L286.438745,30.2941085 C286.715479,30.2941085 286.939307,30.5145716 286.939307,30.7896449 L286.939307,35.4679132 C286.939307,35.7409639 286.715479,35.9634497 286.438745,35.9634497 Z M279.96604,44.4259982 L285.940219,44.4259982 L285.940219,40.7388027 L279.96604,40.7388027 L279.96604,44.4259982 Z M286.438745,45.417071 L279.467513,45.417071 C279.19078,45.417071 278.966952,45.1945853 278.966952,44.9215346 L278.966952,40.2432663 C278.966952,39.968193 279.19078,39.7477298 279.467513,39.7477298 L286.438745,39.7477298 C286.715479,39.7477298 286.939307,39.968193 286.939307,40.2432663 L286.939307,44.9215346 C286.939307,45.1945853 286.715479,45.417071 286.438745,45.417071 Z M279.96604,53.8614162 L285.940219,53.8614162 L285.940219,50.1742207 L279.96604,50.1742207 L279.96604,53.8614162 Z M286.438745,54.852489 L279.467513,54.852489 C279.19078,54.852489 278.966952,54.6300033 278.966952,54.3569526 L278.966952,49.6786843 C278.966952,49.4056336 279.19078,49.1831478 279.467513,49.1831478 L286.438745,49.1831478 C286.715479,49.1831478 286.939307,49.4056336 286.939307,49.6786843 L286.939307,54.3569526 C286.939307,54.6300033 286.715479,54.852489 286.438745,54.852489 Z M274.997053,59.0069046 L290.909206,59.0069046 L290.909206,13.6744237 L274.997053,16.9348511 L274.997053,59.0069046 Z M291.407732,60 L274.498527,60 C274.223828,60 274,59.7775143 274,59.502441 L274,16.5323542 C274,16.2957102 274.164819,16.0934505 274.396786,16.0449081 L291.308027,12.5801984 C291.454533,12.5498594 291.607143,12.5882888 291.723127,12.6813283 C291.83911,12.7763903 291.906259,12.9159496 291.906259,13.0656218 L291.906259,59.502441 C291.906259,59.7775143 291.682431,60 291.407732,60 Z" id="apt/condo-KO" stroke-width="0.75"></path>
                <path d="M423.525584,23.6158121 L429.572523,23.6158121 C429.58677,23.6811611 429.598982,23.7689738 429.598982,23.8710816 L429.598982,27.8124426 L423.499124,27.8124426 L423.499124,23.8710816 C423.499124,23.7689738 423.511336,23.6811611 423.525584,23.6158121 M429.572523,33.4794253 L423.525584,33.4794253 C423.511336,33.4140763 423.499124,33.3262636 423.499124,33.2241558 L423.499124,29.2827948 L429.598982,29.2827948 L429.598982,33.2241558 C429.598982,33.3262636 429.58677,33.4140763 429.572523,33.4794253 M423.240639,34.9518197 C422.530311,34.9518197 422.035728,34.2411494 422.035728,33.2241558 L422.035728,23.8710816 C422.035728,22.8704252 422.542523,22.1434177 423.240639,22.1434177 L429.855433,22.1434177 C430.555583,22.1434177 431.064414,22.8704252 431.064414,23.8710816 L431.064414,33.2241558 C431.064414,34.2248122 430.555583,34.9518197 429.855433,34.9518197 L423.240639,34.9518197 Z M396.091691,47.1265407 C396.584239,47.1265407 396.981127,47.5268033 396.981127,48.0189629 C396.981127,48.5131646 396.584239,48.9134272 396.091691,48.9134272 C395.599143,48.9134272 395.202256,48.5131646 395.202256,48.0189629 C395.202256,47.5268033 395.599143,47.1265407 396.091691,47.1265407 Z M384.922051,50.06602 L378.875112,50.06602 C378.860865,50.000671 378.850688,49.9128583 378.850688,49.8107505 L378.850688,45.8673474 L384.948511,45.8673474 L384.948511,49.8107505 C384.948511,49.9128583 384.936299,50.000671 384.922051,50.06602 M378.875112,40.2003647 L384.922051,40.2003647 C384.936299,40.2657137 384.948511,40.3535264 384.948511,40.4556342 L384.948511,44.3969951 L378.850688,44.3969951 L378.850688,40.4556342 C378.850688,40.3535264 378.860865,40.2657137 378.875112,40.2003647 M385.204961,38.7279702 L378.590167,38.7279702 C377.892052,38.7279702 377.385257,39.4549778 377.385257,40.4556342 L377.385257,49.8107505 C377.385257,50.8277441 377.881875,51.5384144 378.590167,51.5384144 L385.204961,51.5384144 C385.905112,51.5384144 386.411907,50.8114069 386.411907,49.8107505 L386.411907,40.4556342 C386.411907,39.4549778 385.905112,38.7279702 385.204961,38.7279702 M384.922051,33.4796295 L378.875112,33.4796295 C378.860865,33.4142805 378.850688,33.3264678 378.850688,33.22436 L378.850688,29.2829991 L384.948511,29.2829991 L384.948511,33.22436 C384.948511,33.3264678 384.936299,33.4142805 384.922051,33.4796295 M378.875112,23.6160163 L384.922051,23.6160163 C384.936299,23.6813653 384.948511,23.769178 384.948511,23.8712858 L384.948511,27.8126468 L378.850688,27.8126468 L378.850688,23.8712858 C378.850688,23.769178 378.860865,23.6813653 378.875112,23.6160163 M385.204961,22.1436219 L378.590167,22.1436219 C377.892052,22.1436219 377.385257,22.8706294 377.385257,23.8712858 L377.385257,33.22436 C377.385257,34.2413537 377.881875,34.9520239 378.590167,34.9520239 L385.204961,34.9520239 C385.905112,34.9520239 386.411907,34.2250164 386.411907,33.22436 L386.411907,23.8712858 C386.411907,22.8706294 385.905112,22.1436219 385.204961,22.1436219 M397.770017,33.4796295 L391.723078,33.4796295 C391.70883,33.4142805 391.698654,33.3264678 391.698654,33.22436 L391.698654,29.2829991 L397.796476,29.2829991 L397.796476,33.22436 C397.796476,33.3264678 397.784264,33.4142805 397.770017,33.4796295 M391.723078,23.6160163 L397.770017,23.6160163 C397.784264,23.6813653 397.796476,23.769178 397.796476,23.8712858 L397.796476,27.8126468 L391.698654,27.8126468 L391.698654,23.8712858 C391.698654,23.769178 391.70883,23.6813653 391.723078,23.6160163 M398.052927,22.1436219 C398.753077,22.1436219 399.259872,22.8706294 399.259872,23.8712858 L399.259872,33.22436 C399.259872,34.2250164 398.753077,34.9520239 398.052927,34.9520239 L391.438133,34.9520239 C390.729841,34.9520239 390.233222,34.2413537 390.233222,33.22436 L390.233222,23.8712858 C390.233222,22.8706294 390.740017,22.1436219 391.438133,22.1436219 L398.052927,22.1436219 Z M458.337923,48.0189629 C458.337923,47.5268033 458.73481,47.1265407 459.227358,47.1265407 C459.719906,47.1265407 460.116794,47.5268033 460.116794,48.0189629 C460.116794,48.5131646 459.719906,48.9134272 459.227358,48.9134272 C458.73481,48.9134272 458.337923,48.5131646 458.337923,48.0189629 Z M448.088655,50.06602 L442.041716,50.06602 C442.027468,50.000671 442.015256,49.9128583 442.015256,49.8107505 L442.015256,45.8673474 L448.115114,45.8673474 L448.115114,49.8107505 C448.115114,49.9128583 448.102902,50.000671 448.088655,50.06602 M442.041716,40.2003647 L448.088655,40.2003647 C448.102902,40.2657137 448.115114,40.3535264 448.115114,40.4556342 L448.115114,44.3969951 L442.015256,44.3969951 L442.015256,40.4556342 C442.015256,40.3535264 442.027468,40.2657137 442.041716,40.2003647 M448.371565,38.7279702 L441.756771,38.7279702 C441.05662,38.7279702 440.549825,39.4549778 440.549825,40.4556342 L440.549825,49.8107505 C440.549825,50.8277441 441.046443,51.5384144 441.756771,51.5384144 L448.371565,51.5384144 C449.071715,51.5384144 449.57851,50.8114069 449.57851,49.8107505 L449.57851,40.4556342 C449.57851,39.4549778 449.071715,38.7279702 448.371565,38.7279702 M448.088655,33.4796295 L442.041716,33.4796295 C442.027468,33.4142805 442.015256,33.3264678 442.015256,33.22436 L442.015256,29.2829991 L448.115114,29.2829991 L448.115114,33.22436 C448.115114,33.3264678 448.102902,33.4142805 448.088655,33.4796295 M442.041716,23.6160163 L448.088655,23.6160163 C448.102902,23.6813653 448.115114,23.769178 448.115114,23.8712858 L448.115114,27.8126468 L442.015256,27.8126468 L442.015256,23.8712858 C442.015256,23.769178 442.027468,23.6813653 442.041716,23.6160163 M448.371565,22.1436219 L441.756771,22.1436219 C441.05662,22.1436219 440.549825,22.8706294 440.549825,23.8712858 L440.549825,33.22436 C440.549825,34.2413537 441.046443,34.9520239 441.756771,34.9520239 L448.371565,34.9520239 C449.071715,34.9520239 449.57851,34.2250164 449.57851,33.22436 L449.57851,23.8712858 C449.57851,22.8706294 449.071715,22.1436219 448.371565,22.1436219 M460.936621,33.4796295 L454.889681,33.4796295 C454.875434,33.4142805 454.863222,33.3264678 454.863222,33.22436 L454.863222,29.2829991 L460.96308,29.2829991 L460.96308,33.22436 C460.96308,33.3264678 460.950868,33.4142805 460.936621,33.4796295 M454.889681,23.6160163 L460.936621,23.6160163 C460.950868,23.6813653 460.96308,23.769178 460.96308,23.8712858 L460.96308,27.8126468 L454.863222,27.8126468 L454.863222,23.8712858 C454.863222,23.769178 454.875434,23.6813653 454.889681,23.6160163 M461.219531,22.1436219 L454.604736,22.1436219 C453.904586,22.1436219 453.397791,22.8706294 453.397791,23.8712858 L453.397791,33.22436 C453.397791,34.2413537 453.894409,34.9520239 454.604736,34.9520239 L461.219531,34.9520239 C461.919681,34.9520239 462.426476,34.2250164 462.426476,33.22436 L462.426476,23.8712858 C462.426476,22.8706294 461.919681,22.1436219 461.219531,22.1436219 M462.431361,56.5276056 L462.431361,39.37758 C462.431361,38.9691489 462.103674,38.6403618 461.698645,38.6403618 L454.125215,38.6403618 C453.722221,38.6403618 453.394534,38.9691489 453.394534,39.37758 L453.394534,56.5276056 L436.509509,56.5276056 L436.509509,16.5871198 L466.534569,16.5871198 L466.532533,56.5276056 L462.431361,56.5276056 Z M454.85793,56.5194369 L460.96593,56.5194369 L460.96593,40.1127562 L454.85793,40.1127562 L454.85793,56.5194369 Z M423.495664,56.5194369 L429.603664,56.5194369 L429.603664,40.1127562 L423.495664,40.1127562 L423.495664,56.5194369 Z M404.955923,56.4193713 C405.016982,55.367661 405.019018,53.6216177 405.019018,50.6829553 L405.019018,16.5871198 L434.980982,16.5871198 L434.980982,56.5276056 L431.06706,56.5276056 L431.06706,39.37758 C431.06706,38.9691489 430.739373,38.6403618 430.334344,38.6403618 L422.762949,38.6403618 C422.35792,38.6403618 422.030233,38.9691489 422.030233,39.37758 L422.030233,56.5276056 L404.955923,56.5276056 L404.955923,56.4193713 Z M399.265164,56.5276056 L399.265164,39.37758 C399.265164,38.9691489 398.937477,38.6403618 398.532449,38.6403618 L390.961053,38.6403618 C390.556024,38.6403618 390.228338,38.9691489 390.228338,39.37758 L390.228338,56.5276056 L373.465431,56.5276056 L373.465431,16.5871198 L403.490491,16.5871198 L403.490491,56.2947998 C403.488456,56.3703596 403.484385,56.4622566 403.480315,56.5276056 L399.265164,56.5276056 Z M391.693769,56.5194369 L397.801768,56.5194369 L397.801768,40.1127562 L391.693769,40.1127562 L391.693769,56.5194369 Z M381.169122,3.47239443 L395.84786,3.47239443 L402.940954,15.1167676 L374.076028,15.1167676 L381.169122,3.47239443 Z M412.659614,3.47239443 L427.338351,3.47239443 L434.431446,15.1167676 L405.568554,15.1167676 L412.659614,3.47239443 Z M444.15214,3.47239443 L458.828842,3.47239443 L465.921937,15.1167676 L437.059046,15.1167676 L444.15214,3.47239443 Z M459.864821,2.35329298 C459.732525,2.13274014 459.496428,2 459.239977,2 L443.741005,2 C443.484555,2 443.248458,2.13274014 443.116162,2.35329298 L435.744228,14.4530669 L428.37433,2.35329298 C428.242034,2.13274014 428.003901,2 427.749486,2 L412.250514,2 C411.994064,2 411.757966,2.13274014 411.62567,2.35329298 L404.255772,14.4530669 L396.883838,2.35329298 C396.749507,2.13274014 396.51341,2 396.258995,2 L380.760023,2 C380.503572,2 380.267475,2.13274014 380.133144,2.35329298 L372.107872,15.5313252 C372.036636,15.6456859 372,15.7784261 372,15.9132084 L372,56.8094231 C372,57.4996718 372.398923,58 372.950495,58 L404.068522,58 C404.186571,58 404.290373,58 404.379927,57.9857049 C404.394852,57.9870663 414.787881,57.9918314 435.559014,58 C435.807323,57.9693677 435.864312,58 435.931478,58 L467.049505,58 C467.601077,58 468,57.4996718 468,56.8094231 L468,15.9132084 C468,15.7784261 467.963364,15.6456859 467.892128,15.5313252 L459.864821,2.35329298 Z M427.842704,47.1265407 C427.350156,47.1265407 426.953268,47.5268033 426.953268,48.0189629 C426.953268,48.5131646 427.350156,48.9134272 427.842704,48.9134272 C428.335251,48.9134272 428.732139,48.5131646 428.732139,48.0189629 C428.732139,47.5268033 428.335251,47.1265407 427.842704,47.1265407 M416.724964,50.06602 L410.678025,50.06602 C410.663778,50.000671 410.651566,49.9128583 410.651566,49.8107505 L410.651566,45.8673474 L416.751424,45.8673474 L416.751424,49.8107505 C416.751424,49.9128583 416.739212,50.000671 416.724964,50.06602 M410.678025,40.2003647 L416.724964,40.2003647 C416.739212,40.2657137 416.751424,40.3535264 416.751424,40.4556342 L416.751424,44.3969951 L410.651566,44.3969951 L410.651566,40.4556342 C410.651566,40.3535264 410.663778,40.2657137 410.678025,40.2003647 M417.007874,38.7279702 L410.39308,38.7279702 C409.692929,38.7279702 409.186134,39.4549778 409.186134,40.4556342 L409.186134,49.8107505 C409.186134,50.8277441 409.682753,51.5384144 410.39308,51.5384144 L417.007874,51.5384144 C417.708025,51.5384144 418.21482,50.8114069 418.21482,49.8107505 L418.21482,40.4556342 C418.21482,39.4549778 417.708025,38.7279702 417.007874,38.7279702 M416.724964,33.4796295 L410.678025,33.4796295 C410.663778,33.4142805 410.651566,33.3264678 410.651566,33.22436 L410.651566,29.2829991 L416.751424,29.2829991 L416.751424,33.22436 C416.751424,33.3264678 416.739212,33.4142805 416.724964,33.4796295 M410.678025,23.6160163 L416.724964,23.6160163 C416.739212,23.6813653 416.751424,23.769178 416.751424,23.8712858 L416.751424,27.8126468 L410.651566,27.8126468 L410.651566,23.8712858 C410.651566,23.769178 410.663778,23.6813653 410.678025,23.6160163 M417.007874,22.1436219 L410.39308,22.1436219 C409.692929,22.1436219 409.186134,22.8706294 409.186134,23.8712858 L409.186134,33.22436 C409.186134,34.2413537 409.682753,34.9520239 410.39308,34.9520239 L417.007874,34.9520239 C417.708025,34.9520239 418.21482,34.2250164 418.21482,33.22436 L418.21482,23.8712858 C418.21482,22.8706294 417.708025,22.1436219 417.007874,22.1436219" id="townhouse-KO" stroke-width="0.25"></path>
            </g>
        </g>
    </g>
</svg>