<?xml version="1.0" encoding="utf-8"?>
<!-- Generator: Adobe Illustrator 22.1.0, SVG Export Plug-In . SVG Version: 6.00 Build 0)  -->
<svg version="1.1" id="Layer_1" xmlns="http://www.w3.org/2000/svg" xmlns:xlink="http://www.w3.org/1999/xlink" x="0px" y="0px"
	 viewBox="0 0 45 44" style="enable-background:new 0 0 45 44;" xml:space="preserve">
<style type="text/css">
	.st0{fill:none;stroke:#004D71;stroke-width:2;}
</style>
<path class="st0" d="M3.2,6.4C2,6.4,1.1,5.2,1.1,3.7S2,0.9,3.2,0.9h2.3c1.1,0,2.1,1.2,2.1,2.8S6.6,6.4,5.4,6.4H3.2z M14.5,6.4
	c-1.1,0-2.1-1.2-2.1-2.8s0.9-2.8,2.1-2.8h27.3c1.1,0,2.1,1.2,2.1,2.8S43,6.4,41.8,6.4H14.5z M3.2,18.7c-1.1,0-2.1-1.2-2.1-2.8
	c0-1.5,0.9-2.8,2.1-2.8h2.3c1.1,0,2.1,1.2,2.1,2.8c0,1.5-0.9,2.8-2.1,2.8H3.2z M14.5,18.7c-1.1,0-2.1-1.2-2.1-2.8
	c0-1.5,0.9-2.8,2.1-2.8h27.3c1.1,0,2.1,1.2,2.1,2.8c0,1.5-0.9,2.8-2.1,2.8H14.5z M3.2,43.1c-1.1,0-2.1-1.2-2.1-2.8
	c0-1.5,0.9-2.8,2.1-2.8h2.3c1.1,0,2.1,1.2,2.1,2.8c0,1.5-0.9,2.8-2.1,2.8H3.2z M14.5,43.1c-1.1,0-2.1-1.2-2.1-2.8
	c0-1.5,0.9-2.8,2.1-2.8h27.3c1.1,0,2.1,1.2,2.1,2.8c0,1.5-0.9,2.8-2.1,2.8H14.5z M3.2,31c-1.1,0-2.1-1.2-2.1-2.8
	c0-1.5,0.9-2.8,2.1-2.8h2.3c1.1,0,2.1,1.2,2.1,2.8c0,1.5-0.9,2.8-2.1,2.8H3.2z M14.5,31c-1.1,0-2.1-1.2-2.1-2.8
	c0-1.5,0.9-2.8,2.1-2.8h27.3c1.1,0,2.1,1.2,2.1,2.8c0,1.5-0.9,2.8-2.1,2.8H14.5z"/>
</svg>
