<svg width="337" height="260" viewBox="0 0 337 260" fill="none" xmlns="http://www.w3.org/2000/svg">
<path fill-rule="evenodd" clip-rule="evenodd" d="M0.515625 156.891L273.542 260L337 0L0.515625 156.891Z" fill="#004D71"/>
<path d="M162.436 139.008H169.06C169.7 139.008 170.332 139.088 170.956 139.248C171.58 139.392 172.132 139.64 172.612 139.992C173.108 140.328 173.508 140.768 173.812 141.312C174.116 141.856 174.268 142.512 174.268 143.28C174.268 144.24 173.996 145.032 173.452 145.656C172.908 146.28 172.196 146.728 171.316 147V147.048C172.388 147.192 173.268 147.608 173.956 148.296C174.644 148.984 174.988 149.904 174.988 151.056C174.988 151.984 174.804 152.768 174.436 153.408C174.068 154.032 173.58 154.536 172.972 154.92C172.38 155.304 171.692 155.584 170.908 155.76C170.14 155.92 169.356 156 168.556 156H162.436V139.008ZM165.46 145.92H168.148C169.156 145.92 169.924 145.72 170.452 145.32C170.98 144.92 171.244 144.352 171.244 143.616C171.244 142.848 170.972 142.304 170.428 141.984C169.884 141.664 169.036 141.504 167.884 141.504H165.46V145.92ZM165.46 153.456H168.172C168.556 153.456 168.972 153.432 169.42 153.384C169.868 153.32 170.276 153.2 170.644 153.024C171.028 152.848 171.34 152.592 171.58 152.256C171.836 151.92 171.964 151.472 171.964 150.912C171.964 150.016 171.66 149.392 171.052 149.04C170.444 148.688 169.524 148.512 168.292 148.512H165.46V153.456ZM191.511 149.76C191.511 150.784 191.335 151.712 190.983 152.544C190.631 153.36 190.151 154.056 189.543 154.632C188.935 155.208 188.215 155.656 187.383 155.976C186.551 156.28 185.647 156.432 184.671 156.432C183.695 156.432 182.791 156.28 181.959 155.976C181.127 155.656 180.399 155.208 179.775 154.632C179.167 154.056 178.687 153.36 178.335 152.544C177.999 151.712 177.831 150.784 177.831 149.76V139.008H180.855V149.64C180.855 150.136 180.919 150.632 181.047 151.128C181.175 151.608 181.383 152.04 181.671 152.424C181.975 152.808 182.367 153.12 182.847 153.36C183.343 153.6 183.951 153.72 184.671 153.72C185.391 153.72 185.991 153.6 186.471 153.36C186.967 153.12 187.359 152.808 187.647 152.424C187.951 152.04 188.167 151.608 188.295 151.128C188.423 150.632 188.487 150.136 188.487 149.64V139.008H191.511V149.76ZM199.212 148.632L192.828 139.008H196.524L200.796 146.16L205.116 139.008H208.62L202.236 148.632V156H199.212V148.632ZM210.038 139.008H213.062V156H210.038V139.008ZM216.811 139.008H220.819L228.715 151.728H228.763V139.008H231.787V156H227.947L219.883 142.872H219.835V156H216.811V139.008ZM250.418 155.112C249.554 155.528 248.602 155.848 247.562 156.072C246.538 156.312 245.354 156.432 244.01 156.432C242.634 156.432 241.378 156.216 240.242 155.784C239.106 155.336 238.13 154.72 237.314 153.936C236.498 153.136 235.858 152.192 235.394 151.104C234.946 150 234.722 148.784 234.722 147.456C234.722 146.096 234.954 144.872 235.418 143.784C235.898 142.68 236.546 141.744 237.362 140.976C238.194 140.208 239.17 139.616 240.29 139.2C241.41 138.784 242.626 138.576 243.938 138.576C245.298 138.576 246.538 138.776 247.658 139.176C248.794 139.56 249.706 140.072 250.394 140.712L248.306 142.968C247.874 142.488 247.266 142.08 246.482 141.744C245.714 141.408 244.874 141.24 243.962 141.24C243.066 141.24 242.25 141.4 241.514 141.72C240.794 142.04 240.178 142.48 239.666 143.04C239.154 143.6 238.754 144.256 238.466 145.008C238.194 145.76 238.058 146.576 238.058 147.456C238.058 148.368 238.194 149.208 238.466 149.976C238.754 150.728 239.154 151.384 239.666 151.944C240.194 152.504 240.826 152.944 241.562 153.264C242.314 153.568 243.162 153.72 244.106 153.72C245.402 153.72 246.53 153.52 247.49 153.12V148.8H243.914V146.304H250.418V155.112Z" fill="white"/>
</svg>
