<?xml version="1.0" encoding="utf-8"?>
<!-- Generator: Adobe Illustrator 22.1.0, SVG Export Plug-In . SVG Version: 6.00 Build 0)  -->
<svg version="1.1" id="Layer_1" xmlns="http://www.w3.org/2000/svg" xmlns:xlink="http://www.w3.org/1999/xlink" x="0px" y="0px"
	 viewBox="0 0 56 49" style="enable-background:new 0 0 56 49;" xml:space="preserve">
<style type="text/css">
	.st0{fill:none;stroke:#004D71;stroke-width:2;}
</style>
<path class="st0" d="M28.6,34c-5.3-2.2-7-4-7-8c0-2.4,1.6-1.6,2.3-6c0.3-1.8,1.7,0,2-4.2c0-1.6-0.8-2.1-0.8-2.1s0.4-2.4,0.5-4.3
	c0.2-2.3-1.2-8.4-8.5-8.4c-7.3,0-8.7,6-8.5,8.4c0.2,1.9,0.6,4.3,0.6,4.3s-0.8,0.4-0.8,2.1c0.3,4.1,1.7,2.4,2,4.2
	c0.7,4.4,2.3,3.6,2.3,6c0,4-1.7,5.8-7,8c-1.6,0.7-4.5,1.7-4.5,4.2v9.7h37.1v-7.3C38.4,38.3,33.9,36.2,28.6,34z M54.7,47.9
	c0,0-0.1-10.1-0.7-11.1c-0.9-1.6-3.1-2.6-7-4.3c-4-1.6-5.2-3-5.2-6c0-1.8,1.2-1.2,1.7-4.5c0.2-1.4,1.3,0,1.5-3.1
	c0-1.2-0.6-1.5-0.6-1.5s0.3-1.8,0.4-3.2c0.1-1.8-0.9-6.3-6.4-6.3c-5.5,0-6.5,4.5-6.4,6.3c0.1,1.4,0.4,3.2,0.4,3.2s-0.6,0.3-0.6,1.5
	c0.2,3.1,1.3,1.8,1.5,3.1c0.5,3.3,1.7,2.7,1.7,4.5c0,2-0.6,3.3-2.2,4.4c8.7,4.3,9.8,5.2,9.8,9v7.9L54.7,47.9z"/>
</svg>
