<svg width="323" height="260" viewBox="0 0 323 260" fill="none" xmlns="http://www.w3.org/2000/svg">
<path fill-rule="evenodd" clip-rule="evenodd" d="M67.8902 0L0 260L322.875 182.773L67.8902 0Z" fill="#004D71"/>
<path d="M97.404 142.56C97.084 142.144 96.628 141.8 96.036 141.528C95.46 141.24 94.876 141.096 94.284 141.096C93.932 141.096 93.58 141.144 93.228 141.24C92.876 141.32 92.556 141.456 92.268 141.648C91.98 141.824 91.74 142.064 91.548 142.368C91.372 142.656 91.284 143.008 91.284 143.424C91.284 143.808 91.364 144.136 91.524 144.408C91.684 144.68 91.9 144.912 92.172 145.104C92.46 145.296 92.804 145.464 93.204 145.608C93.604 145.752 94.044 145.896 94.524 146.04C95.068 146.216 95.628 146.416 96.204 146.64C96.796 146.864 97.332 147.16 97.812 147.528C98.308 147.896 98.708 148.36 99.012 148.92C99.332 149.48 99.492 150.176 99.492 151.008C99.492 151.92 99.324 152.72 98.988 153.408C98.652 154.08 98.204 154.64 97.644 155.088C97.084 155.536 96.428 155.872 95.676 156.096C94.924 156.32 94.132 156.432 93.3 156.432C92.196 156.432 91.116 156.232 90.06 155.832C89.004 155.416 88.14 154.808 87.468 154.008L89.628 151.992C90.044 152.568 90.596 153.024 91.284 153.36C91.988 153.696 92.676 153.864 93.348 153.864C93.7 153.864 94.06 153.824 94.428 153.744C94.796 153.648 95.124 153.496 95.412 153.288C95.716 153.08 95.956 152.824 96.132 152.52C96.324 152.2 96.42 151.808 96.42 151.344C96.42 150.896 96.316 150.528 96.108 150.24C95.9 149.936 95.62 149.68 95.268 149.472C94.916 149.248 94.5 149.056 94.02 148.896C93.54 148.736 93.036 148.568 92.508 148.392C91.996 148.232 91.484 148.04 90.972 147.816C90.46 147.592 89.996 147.296 89.58 146.928C89.18 146.56 88.852 146.112 88.596 145.584C88.34 145.04 88.212 144.368 88.212 143.568C88.212 142.704 88.388 141.96 88.74 141.336C89.108 140.712 89.58 140.2 90.156 139.8C90.748 139.384 91.412 139.08 92.148 138.888C92.9 138.68 93.66 138.576 94.428 138.576C95.292 138.576 96.164 138.728 97.044 139.032C97.94 139.336 98.716 139.792 99.372 140.4L97.404 142.56ZM102.521 139.008H113.777V141.648H105.545V145.968H113.345V148.512H105.545V153.312H114.209V156H102.521V139.008ZM117.17 139.008H120.194V153.312H127.418V156H117.17V139.008ZM129.428 139.008H132.452V153.312H139.676V156H129.428V139.008ZM141.685 139.008H144.709V156H141.685V139.008ZM148.459 139.008H152.467L160.363 151.728H160.411V139.008H163.435V156H159.595L151.531 142.872H151.483V156H148.459V139.008ZM182.065 155.112C181.201 155.528 180.249 155.848 179.209 156.072C178.185 156.312 177.001 156.432 175.657 156.432C174.281 156.432 173.025 156.216 171.889 155.784C170.753 155.336 169.777 154.72 168.961 153.936C168.145 153.136 167.505 152.192 167.041 151.104C166.593 150 166.369 148.784 166.369 147.456C166.369 146.096 166.601 144.872 167.065 143.784C167.545 142.68 168.193 141.744 169.009 140.976C169.841 140.208 170.817 139.616 171.937 139.2C173.057 138.784 174.273 138.576 175.585 138.576C176.945 138.576 178.185 138.776 179.305 139.176C180.441 139.56 181.353 140.072 182.041 140.712L179.953 142.968C179.521 142.488 178.913 142.08 178.129 141.744C177.361 141.408 176.521 141.24 175.609 141.24C174.713 141.24 173.897 141.4 173.161 141.72C172.441 142.04 171.825 142.48 171.313 143.04C170.801 143.6 170.401 144.256 170.113 145.008C169.841 145.76 169.705 146.576 169.705 147.456C169.705 148.368 169.841 149.208 170.113 149.976C170.401 150.728 170.801 151.384 171.313 151.944C171.841 152.504 172.473 152.944 173.209 153.264C173.961 153.568 174.809 153.72 175.753 153.72C177.049 153.72 178.177 153.52 179.137 153.12V148.8H175.561V146.304H182.065V155.112Z" fill="white"/>
</svg>
