<?xml version="1.0" encoding="UTF-8"?>
<svg width="27px" height="27px" viewBox="0 0 27 27" version="1.1" xmlns="http://www.w3.org/2000/svg" xmlns:xlink="http://www.w3.org/1999/xlink">
    <!-- Generator: Sketch 51.2 (57519) - http://www.bohemiancoding.com/sketch -->
    <title>Fill 7</title>
    <desc>Created with Sketch.</desc>
    <defs></defs>
    <g stroke="none" stroke-width="1" fill="none" fill-rule="evenodd">
        <g transform="translate(-100.000000, 0.000000)" fill="#C4BEB6">
            <path d="M116.7817,9.5016 L114.7757,9.5016 C114.5397,9.5016 114.2747,9.8126 114.2747,10.2306 L114.2747,11.6776 L116.7817,11.6776 L116.7817,13.7416 L114.2747,13.7416 L114.2747,19.9346 L111.9087,19.9346 L111.9087,13.7416 L109.7627,13.7416 L109.7627,11.6776 L111.9087,11.6776 L111.9087,10.4646 C111.9087,8.7216 113.1167,7.3056 114.7757,7.3056 L116.7817,7.3056 L116.7817,9.5016 Z M113.6157,0.5786 C106.4117,0.5786 100.5737,6.4176 100.5737,13.6196 C100.5737,20.8246 106.4117,26.6636 113.6157,26.6636 C120.8197,26.6636 126.6567,20.8246 126.6567,13.6196 C126.6567,6.4176 120.8197,0.5786 113.6157,0.5786 Z"></path>
        </g>
    </g>
</svg>
