<?xml version="1.0" encoding="UTF-8"?>
<svg width="27px" height="27px" viewBox="0 0 27 27" version="1.1" xmlns="http://www.w3.org/2000/svg" xmlns:xlink="http://www.w3.org/1999/xlink">
    <!-- Generator: Sketch 51.2 (57519) - http://www.bohemiancoding.com/sketch -->
    <title>Fill 5</title>
    <desc>Created with Sketch.</desc>
    <defs></defs>
    <g stroke="none" stroke-width="1" fill="none" fill-rule="evenodd">
        <g transform="translate(-56.000000, 0.000000)" fill="#D8D3CD">
            <path d="M76.5552,17.2728 C76.5552,17.5918 76.1312,18.0018 75.8012,18.0018 L63.6262,18.0018 C63.2972,18.0018 62.8722,17.5918 62.8722,17.2728 L62.8722,11.6968 C62.8722,11.5558 62.8702,11.3748 63.1672,11.5298 C63.5882,11.7498 68.7662,14.4578 69.0252,14.5928 C69.2842,14.7268 69.4642,14.7448 69.7142,14.7448 C69.9632,14.7448 70.1442,14.7268 70.4032,14.5928 C70.6602,14.4578 75.8392,11.7498 76.2612,11.5298 C76.5582,11.3748 76.5552,11.5558 76.5552,11.6968 L76.5552,17.2728 Z M63.2832,9.1838 L76.1442,9.1838 C76.8262,9.1838 76.4742,9.8098 76.1032,10.0098 C75.7322,10.2088 70.5942,12.9688 70.4032,13.0718 C70.2112,13.1748 69.9632,13.2238 69.7142,13.2238 C69.4642,13.2238 69.2162,13.1748 69.0252,13.0718 C68.8332,12.9688 63.6952,10.2088 63.3242,10.0098 C62.9512,9.8098 62.6022,9.1838 63.2832,9.1838 Z M69.7132,0.5228 C62.4952,0.5228 56.6432,6.3738 56.6432,13.5928 C56.6432,20.8118 62.4952,26.6638 69.7132,26.6638 C76.9322,26.6638 82.7842,20.8118 82.7842,13.5928 C82.7842,6.3738 76.9322,0.5228 69.7132,0.5228 Z"></path>
        </g>
    </g>
</svg>