<?xml version="1.0" encoding="UTF-8"?>
<svg width="259px" height="217px" viewBox="0 0 259 217" version="1.1" xmlns="http://www.w3.org/2000/svg" xmlns:xlink="http://www.w3.org/1999/xlink">
    <!-- Generator: Sketch 51.2 (57519) - http://www.bohemiancoding.com/sketch -->
    <title>LOGO + WORDMARK</title>
    <desc>Created with Sketch.</desc>
    <defs></defs>
    <g id="Contact-✓✓" stroke="none" stroke-width="1" fill="none" fill-rule="evenodd">
        <g id="Contact_Main" transform="translate(-591.000000, -242.000000)" fill="#EBA900">
            <g id="LOGO-+-WORDMARK-Y" transform="translate(591.000000, 241.000000)">
                <g id="LOGO-Y" transform="translate(36.000000, 0.000000)">
                    <path d="M152.523551,76.6430801 L137.122196,37.6014946 L181.97407,35.7864842 L152.523551,76.6430801 Z M125.593978,57.5466979 L135.810885,38.3486668 L150.704906,76.3192705 L125.593978,57.5466979 Z M108.22094,88.7843676 L62.90995,53.9386837 L94.9977659,37.0010321 L123.384351,58.0591345 L108.22094,88.7843676 Z M102.624545,117.911511 L97.2671413,93.5335749 L107.43583,91.336071 L102.624545,117.911511 Z M62.0388871,55.1710464 L106.886568,89.8176241 L63.3449573,99.0980697 L62.0388871,55.1710464 Z M61.619603,99.2164855 L29.8472984,96.3839376 L11.3411443,65.9835619 L36.945779,36.0956228 L60.4655234,54.2352472 L61.619603,99.2164855 Z M36.716221,118.962583 L30.3514876,98.067957 L42.3838944,99.2363961 L36.716221,118.962583 Z M4.43763075,76.2406759 L10.2908375,67.2337394 L13.2457425,72.4366992 L4.43763075,76.2406759 Z M163.918646,25.8290775 L166.479424,34.648435 L159.879892,34.921944 L163.918646,25.8290775 Z M179.759201,7.4641487 L183.488734,34.0804583 L168.935381,34.5666966 L179.759201,7.4641487 Z M185.192076,34.1925865 L180.493997,0.964902591 L167.739373,32.9067795 L164.190133,21.775694 L157.875713,35.1158106 L135.34548,35.9373858 L124.192521,56.5071539 L95.152901,34.9649091 L61.4068163,52.7796759 L36.701546,33.7252109 L9.58434368,65.3778598 L0.564493426,79.4085606 L14.1566373,73.9331396 L28.5422765,97.5639039 L36.7277513,123.945478 L44.140695,99.3925373 L62.5629923,101.03464 L95.5784744,93.8993016 L102.711546,125.366467 L109.271247,90.9399544 L109.616108,89.963286 L124.794194,59.1049661 L152.491057,79.6506319 L185.192076,34.1925865 Z M151.490225,47.1027385 C152.524809,47.1310325 153.387486,46.314697 153.415788,45.2803926 C153.443041,44.2460882 152.627534,43.3846918 151.59295,43.3563978 C150.557318,43.3281038 149.695689,44.1433913 149.667388,45.1776957 C149.639086,46.2130481 150.455642,47.0744444 151.490225,47.1027385" id="Fill-6"></path>
                </g>
                <g id="LEE-+-PETE-REG-Y" transform="translate(0.000000, 161.000000)" stroke-width="1">
                    <g id="Lee+Pete_Logo_Blue">
                        <polyline id="Fill-1" points="0 25 0 0 5.84159825 0 5.84159825 19.8813027 17 19.8813027 17 25 0 25"></polyline>
                        <polyline id="Fill-3" points="29 25 29 0 45.9359802 0 45.9359802 5.08489741 34.7416613 5.08489741 34.7416613 9.85267218 44.1608027 9.85267218 44.1608027 14.9027756 34.7416613 14.9027756 34.7416613 19.8813027 46 19.8813027 46 25 29 25"></polyline>
                        <polyline id="Fill-4" points="63 25 63 0 79.9359768 0 79.9359768 5.08489741 68.7410556 5.08489741 68.7410556 9.85267218 78.1616183 9.85267218 78.1616183 14.9027756 68.7410556 14.9027756 68.7410556 19.8813027 80 19.8813027 80 25 63 25"></polyline>
                        <path d="M161.219926,4.90893908 L157.60119,4.90893908 L157.60119,11.5357086 L161.219926,11.5357086 C163.139926,11.5357086 164.493383,10.4143471 164.493383,8.16864164 C164.493383,5.99650072 163.234498,4.90893908 161.219926,4.90893908 Z M162.258439,16.3392715 L157.60119,16.3392715 L157.60119,25 L152,25 L152,0 L162.132639,0 C167.104833,0 170,3.40086687 170,8.02946556 C170,12.1321775 167.734721,16.3392715 162.258439,16.3392715 Z" id="Fill-5"></path>
                        <polyline id="Fill-6" points="182 25 182 0 198.93598 0 198.93598 5.08489741 187.741661 5.08489741 187.741661 9.85267218 197.160803 9.85267218 197.160803 14.9027756 187.741661 14.9027756 187.741661 19.8813027 199 19.8813027 199 25 182 25"></polyline>
                        <polyline id="Fill-7" points="223.42776 5.01332114 223.42776 25 217.604525 25 217.604525 5.04910927 211 5.04910927 211 0 230 0 230 5.01332114 223.42776 5.01332114"></polyline>
                        <polyline id="Fill-8" points="242 25 242 0 258.935977 0 258.935977 5.08489741 247.74197 5.08489741 247.74197 9.85267218 257.161618 9.85267218 257.161618 14.9027756 247.74197 14.9027756 247.74197 19.8813027 259 19.8813027 259 25 242 25"></polyline>
                        <polyline id="Fill-9" points="107 13.4311861 107 10.5678569 113.158103 10.5678569 113.158103 4 115.842795 4 115.842795 10.5678569 122 10.5678569 122 13.4311861 115.842795 13.4311861 115.842795 20 113.158103 20 113.158103 13.4311861 107 13.4311861"></polyline>
                        <polyline id="Fill-10" points="16.0501946 57 14.9507134 57 12 47 13.0858625 47 15.4927367 55.3571149 15.5453956 55.3571149 17.9014267 47 19 47 16.0501946 57"></polyline>
                        <path d="M24.992875,48.4904222 L24.9672248,48.4904222 L23.397815,53.1835418 L26.5641848,53.1835418 L24.992875,48.4904222 Z M27.8504928,57 L26.8890868,54.1442533 L23.086213,54.1442533 L22.1390571,57 L21,57 L24.5083719,47 L25.5486284,47 L29,57 L27.8504928,57 Z" id="Fill-11"></path>
                        <polyline id="Fill-12" points="36.9242927 56.857 32.183561 48.62 32.1566829 48.62 32.1566829 56.829 31.1529268 56.829 31.1529268 46.668 32.2363902 46.668 36.9001951 54.705 36.9381951 54.705 36.9381951 46.668 37.9289756 46.668 37.9289756 56.857 36.9242927 56.857"></polyline>
                        <path d="M44.8681463,57 C42.8875122,57 41.330439,55.889 41.330439,53.608 L41.330439,50.074 C41.330439,48.008 42.7698049,46.483 44.843122,46.483 C46.796878,46.483 48.170439,47.637 48.170439,49.318 L48.170439,49.689 L47.1416585,49.689 L47.1416585,49.461 C47.1416585,48.265 46.2963902,47.494 44.8023415,47.494 C43.3639024,47.494 42.4389268,48.464 42.4389268,49.974 L42.4389268,53.523 C42.4389268,55.062 43.3639024,56.002 44.8570244,56.002 C46.3343902,56.002 47.1277561,55.232 47.1277561,54.035 L47.1277561,53.793 L48.170439,53.793 L48.170439,54.164 C48.170439,55.917 46.7310732,57 44.8681463,57" id="Fill-14"></path>
                        <path d="M57.1477073,49.946 C57.1477073,48.435 56.2477561,47.522 54.7018049,47.522 C53.262439,47.522 52.3374634,48.506 52.3374634,50.102 L52.3374634,53.523 C52.3374634,55.062 53.262439,55.974 54.7564878,55.974 C56.1949268,55.974 57.1338049,55.076 57.1338049,53.508 L57.1338049,49.946 L57.1477073,49.946 Z M54.7157073,57 C52.7619512,57 51.2299024,55.846 51.2299024,53.608 L51.2299024,50.16 C51.2299024,47.894 52.7202439,46.483 54.7425854,46.483 C56.764,46.483 58.2552683,47.723 58.2552683,49.946 L58.2552683,53.408 C58.2552683,55.689 56.6713171,57 54.7157073,57 Z" id="Fill-15"></path>
                        <path d="M64.8403902,57 C63.2165854,57 61.4982439,56.103 61.4982439,53.921 L61.4982439,46.668 L62.5956098,46.668 L62.5956098,53.737 C62.5956098,55.204 63.6651707,55.974 64.934,55.974 C66.0971707,55.974 67.2186341,55.304 67.2186341,53.75 L67.2186341,46.668 L68.2752195,46.668 L68.2752195,53.808 C68.2752195,56.002 66.5179512,57 64.8403902,57" id="Fill-16"></path>
                        <polyline id="Fill-18" points="75.0492866 57 73.9507134 57 71 47 72.0849546 47 74.4927367 55.3571149 74.5463035 55.3571149 76.9005188 47 78 47 75.0492866 57"></polyline>
                        <polyline id="Fill-19" points="81 57 81 47 86.9854862 47 86.9854862 48.008759 82.1185293 48.008759 82.1185293 51.3194567 86.0488631 51.3194567 86.0488631 52.3154217 82.1185293 52.3154217 82.1185293 55.9902569 87 55.9902569 87 57 81 57"></polyline>
                        <path d="M95.5109499,49.9593544 C95.5109499,48.6268084 94.4954666,47.9812026 93.0894127,47.9812026 L91.1297252,47.9812026 L91.1297252,52.0487157 L93.1187055,52.0487157 C94.6770819,52.0487157 95.4982564,51.3607913 95.4982564,49.9593544 L95.5109499,49.9593544 Z M95.6779188,57 L93.0054401,53.0299183 L91.1404659,53.0299183 L91.1404659,57 L90,57 L90,47 L93.4087041,47 C94.3001813,47 95.0373832,47.2106092 95.6076161,47.6446216 C96.2764681,48.1642555 96.6660622,48.9633894 96.6660622,49.9593544 C96.6660622,51.5153036 95.7902078,52.6234623 94.2044916,52.932487 L97,57 L95.6779188,57 Z" id="Fill-20"></path>
                        <path d="M109.51095,49.9593544 C109.51095,48.6268084 108.495467,47.9812026 107.089413,47.9812026 L105.128749,47.9812026 L105.128749,52.0487157 L107.118706,52.0487157 C108.677082,52.0487157 109.498256,51.3607913 109.498256,49.9593544 L109.51095,49.9593544 Z M109.677919,57 L107.00544,53.0299183 L105.140466,53.0299183 L105.140466,57 L104,57 L104,47 L107.408704,47 C108.299205,47 109.037383,47.2106092 109.607616,47.6446216 C110.276468,48.1642555 110.665086,48.9633894 110.665086,49.9593544 C110.665086,51.5153036 109.789231,52.6234623 108.204492,52.932487 L111,57 L109.677919,57 Z" id="Fill-21"></path>
                        <polyline id="Fill-22" points="114 57 114 47 119.985486 47 119.985486 48.008759 115.116594 48.008759 115.116594 51.3194567 119.047896 51.3194567 119.047896 52.3154217 115.116594 52.3154217 115.116594 55.9902569 120 55.9902569 120 57 114 57"></polyline>
                        <path d="M125.992875,48.4904222 L125.967225,48.4904222 L124.397815,53.1835418 L127.563235,53.1835418 L125.992875,48.4904222 Z M128.850493,57 L127.888137,54.1442533 L124.085263,54.1442533 L123.137157,57 L122,57 L125.507422,47 L126.547678,47 L130,57 L128.850493,57 Z" id="Fill-23"></path>
                        <polyline id="Fill-24" points="134 57 134 47 135.143417 47 135.143417 55.9902569 140 55.9902569 140 57 134 57"></polyline>
                        <polyline id="Fill-25" points="147.304 56.829 147.304 46.668 153.126118 46.668 153.126118 47.693 148.390118 47.693 148.390118 51.057 152.215059 51.057 152.215059 52.069 148.390118 52.069 148.390118 55.803 153.140235 55.803 153.140235 56.829 147.304 56.829"></polyline>
                        <path d="M159.639059,57 C157.761412,57 156.500235,55.988 156.139765,54.32 L157.224941,54.05 C157.506353,55.148 158.283765,55.988 159.653176,55.988 C160.697882,55.988 161.850824,55.403 161.850824,54.093 C161.850824,53.08 161.181647,52.596 160.296,52.339 C160.147294,52.283 158.525647,51.755 158.378824,51.699 C157.425412,51.342 156.608471,50.573 156.608471,49.333 C156.608471,47.509 157.948706,46.497 159.653176,46.497 C161.140235,46.497 162.266824,47.01 162.817412,48.464 L161.892235,48.92 C161.437647,47.908 160.739294,47.494 159.665412,47.494 C158.686588,47.494 157.734118,48.079 157.734118,49.147 C157.734118,49.974 158.297882,50.459 159.062118,50.701 C159.223059,50.757 160.887059,51.313 161.047059,51.371 C162.092706,51.742 162.992471,52.482 162.992471,53.95 C162.992471,55.932 161.476235,57 159.639059,57" id="Fill-27"></path>
                        <polyline id="Fill-29" points="168.516449 48.008759 168.516449 57 167.497164 57 167.497164 48.008759 165 48.008759 165 47 171 47 171 48.008759 168.516449 48.008759"></polyline>
                        <path d="M175.992401,48.4904222 L175.967704,48.4904222 L174.39753,53.1835418 L177.563524,53.1835418 L175.992401,48.4904222 Z M178.849679,57 L177.888388,54.1442533 L174.085965,54.1442533 L173.137972,57 L172,57 L175.506056,47 L176.548088,47 L180,57 L178.849679,57 Z" id="Fill-30"></path>
                        <polyline id="Fill-31" points="184.517505 48.008759 184.517505 57 183.497803 57 183.497803 48.008759 181 48.008759 181 47 187 47 187 48.008759 184.517505 48.008759"></polyline>
                        <polyline id="Fill-32" points="190.387054 56.829 190.387054 46.668 196.021643 46.668 196.021643 47.693 191.438929 47.693 191.438929 51.057 195.139161 51.057 195.139161 52.069 191.438929 52.069 191.438929 55.803 196.035304 55.803 196.035304 56.829 190.387054 56.829"></polyline>
                        <path d="M207.164232,57 C205.245357,57 203.739946,55.846 203.739946,53.608 L203.739946,50.16 C203.739946,47.894 205.178875,46.483 207.191554,46.483 C209.125,46.483 210.487429,47.522 210.487429,49.361 L210.487429,49.731 L209.475625,49.731 L209.475625,49.504 C209.475625,48.192 208.618643,47.509 207.151482,47.509 C205.737143,47.509 204.829161,48.464 204.829161,50.059 L204.829161,53.523 C204.829161,55.062 205.737143,55.988 207.204304,55.988 C208.604982,55.988 209.513875,55.262 209.513875,53.78 L209.513875,52.71 L207.177893,52.71 L207.177893,51.656 L210.5275,51.656 L210.5275,53.707 C210.5275,55.959 209.059429,57 207.164232,57" id="Fill-34"></path>
                        <path d="M219.096411,49.675 C219.096411,48.321 218.150179,47.665 216.837839,47.665 L215.008214,47.665 L215.008214,51.798 L216.865161,51.798 C218.318661,51.798 219.085482,51.099 219.085482,49.675 L219.096411,49.675 Z M219.252143,56.829 L216.760429,52.795 L215.020964,52.795 L215.020964,56.829 L213.956339,56.829 L213.956339,46.668 L217.137464,46.668 C217.968036,46.668 218.655625,46.882 219.188393,47.323 C219.811321,47.851 220.174696,48.663 220.174696,49.675 C220.174696,51.256 219.356875,52.382 217.878786,52.696 L220.486161,56.829 L219.252143,56.829 Z" id="Fill-35"></path>
                        <path d="M229.162536,49.946 C229.162536,48.435 228.278232,47.522 226.759161,47.522 C225.344821,47.522 224.436839,48.506 224.436839,50.102 L224.436839,53.523 C224.436839,55.062 225.344821,55.974 226.812893,55.974 C228.226321,55.974 229.148875,55.076 229.148875,53.508 L229.148875,49.946 L229.162536,49.946 Z M226.772821,57 C224.853036,57 223.347625,55.846 223.347625,53.608 L223.347625,50.16 C223.347625,47.894 224.812964,46.483 226.799232,46.483 C228.783679,46.483 230.250839,47.723 230.250839,49.946 L230.250839,53.408 C230.250839,55.689 228.694429,57 226.772821,57 Z" id="Fill-36"></path>
                        <path d="M236.722375,57 C235.125893,57 233.437429,56.103 233.437429,53.921 L233.437429,46.668 L234.515714,46.668 L234.515714,53.737 C234.515714,55.204 235.566679,55.974 236.813446,55.974 C237.956393,55.974 239.058357,55.304 239.058357,53.75 L239.058357,46.668 L240.096571,46.668 L240.096571,53.808 C240.096571,56.002 238.369857,57 236.722375,57" id="Fill-37"></path>
                        <path d="M248.949534,49.9593544 C248.949534,48.6691271 248.114844,47.9812026 246.747373,47.9812026 L245.028267,47.9812026 L245.028267,52.0487157 L246.774012,52.0487157 C248.191209,52.0487157 248.936214,51.3607913 248.936214,49.9593544 L248.949534,49.9593544 Z M246.94983,53.0299183 L245.038035,53.0299183 L245.038035,57 L244,57 L244,47 L247.037739,47 C248.836762,47 250,48.1081586 250,49.9593544 C250,51.7829938 248.89892,53.0299183 246.94983,53.0299183 Z" id="Fill-39"></path>
                    </g>
                </g>
            </g>
        </g>
    </g>
</svg>