<?xml version="1.0" encoding="UTF-8"?>
<svg width="1234px" height="830px" viewBox="0 0 1234 830" version="1.1" xmlns="http://www.w3.org/2000/svg" xmlns:xlink="http://www.w3.org/1999/xlink">
    <!-- Generator: Sketch 51.3 (57544) - http://www.bohemiancoding.com/sketch -->
    <title>LOGO G</title>
    <desc>Created with Sketch.</desc>
    <defs></defs>
    <g id="!!-Buying-Process" stroke="none" stroke-width="1" fill="none" fill-rule="evenodd" opacity="0.5">
        <g id="buying_process" transform="translate(-111.000000, -1603.000000)" fill="#FFFFFF">
            <g id="LOGO-KO" transform="translate(108.000000, 1597.000000)">
                <path d="M1018.46371,510.953867 L915.622406,250.67663 L1215.11718,238.576561 L1018.46371,510.953867 Z M838.643663,383.644653 L906.866232,255.657779 L1006.31986,508.795136 L838.643663,383.644653 Z M722.636598,591.895784 L420.076117,359.591225 L634.339921,246.673547 L823.889053,387.060896 L722.636598,591.895784 Z M685.26712,786.076743 L649.493492,623.557166 L717.394092,608.90714 L685.26712,786.076743 Z M414.259666,367.806976 L713.726437,598.784161 L422.980844,660.653798 L414.259666,367.806976 Z M411.45993,661.443237 L199.302928,642.559584 L75.7295762,439.890413 L246.70246,240.637485 L403.753656,361.568314 L411.45993,661.443237 Z M245.169605,793.083884 L202.669611,653.78638 L283.015037,661.575974 L245.169605,793.083884 Z M29.6319215,508.271173 L68.7162373,448.224929 L88.4473774,482.911328 L29.6319215,508.271173 Z M1094.55354,172.19385 L1111.65293,230.989566 L1067.58508,232.81296 L1094.55354,172.19385 Z M1200.32757,49.7609914 L1225.23122,227.203055 L1128.05238,230.444644 L1200.32757,49.7609914 Z M1236.60515,227.950577 L1205.23411,6.43268394 L1120.06614,219.37853 L1096.36637,145.171294 L1054.20234,234.105404 L903.758525,239.582572 L829.285545,376.714359 L635.375823,233.099394 L410.039064,351.864506 L245.071614,224.834739 L63.998682,435.852399 L3.76935933,529.390404 L94.5298041,492.887598 L190.588749,650.426026 L245.246597,826.303185 L294.745931,662.616915 L417.759336,673.564264 L638.217555,625.995344 L685.848065,835.776449 L729.649937,606.266363 L731.952719,599.75524 L833.303166,394.033107 L1018.24673,531.004212 L1236.60515,227.950577 Z M1011.56376,314.018256 C1018.47211,314.206883 1024.23257,308.764647 1024.42155,301.869284 C1024.60353,294.973921 1019.15805,289.231279 1012.2497,289.042652 C1005.33435,288.854025 999.580892,294.289275 999.39191,301.184638 C999.202928,308.086987 1004.65541,313.82963 1011.56376,314.018256" id="Fill-6"></path>
            </g>
        </g>
    </g>
</svg>