<?xml version="1.0" encoding="UTF-8"?>
<svg width="104px" height="120px" viewBox="0 0 104 120" version="1.1" xmlns="http://www.w3.org/2000/svg" xmlns:xlink="http://www.w3.org/1999/xlink">
    <!-- Generator: Sketch 51.2 (57519) - http://www.bohemiancoding.com/sketch -->
    <title>OAKWYN_logo G</title>
    <desc>Created with Sketch.</desc>
    <defs>
        <polygon id="path-1" points="0 110.994974 103.904303 110.994974 103.904303 119.458462 0 119.458462"></polygon>
    </defs>
    <g id="Contact-✓✓" stroke="none" stroke-width="1" fill="none" fill-rule="evenodd">
        <g id="Contact_Main" transform="translate(-668.000000, -240.000000)" stroke="#979797">
            <g id="OAKWYN_logo-G" transform="translate(668.000000, 240.000000)">
                <path d="M51.9517389,95.4873846 C25.4732538,95.4873846 3.93272915,74.0699487 3.93272915,47.7437949 C3.93272915,21.417641 25.4732538,0.000205128205 51.9517389,0.000205128205 C78.4291925,0.000205128205 99.9707486,21.417641 99.9707486,47.7437949 C99.9707486,74.0699487 78.4291925,95.4873846 51.9517389,95.4873846 M51.9517389,22.4884103 C37.9455497,22.4884103 26.5501768,33.817641 26.5501768,47.7437949 C26.5501768,61.6689231 37.9455497,72.9991795 51.9517389,72.9991795 C65.9568966,72.9991795 77.3522694,61.6689231 77.3522694,47.7437949 C77.3522694,33.817641 65.9568966,22.4884103 51.9517389,22.4884103" id="Fill-1" stroke="none" fill="#AE8B2F" fill-rule="evenodd"></path>
                <mask id="mask-2" fill="white">
                    <use xlink:href="#path-1"></use>
                </mask>
                <g id="Clip-4" stroke="none"></g>
                <path d="M103.904303,111.334462 L103.381314,111.334462 L100.854052,115.385744 L98.327822,111.334462 L97.8048335,111.334462 L100.615768,115.838051 L100.615768,119.256513 L101.104716,119.256513 L101.104716,115.838051 L103.904303,111.334462 Z M93.2640141,111.799077 L95.858326,111.799077 L95.858326,111.334462 L90.1786914,111.334462 L90.1786914,111.799077 L92.7750663,111.799077 L92.7750663,119.256513 L93.2640141,119.256513 L93.2640141,111.799077 Z M84.9333333,119.256513 L89.7691718,119.256513 L89.7691718,118.790872 L85.4212496,118.790872 L85.4212496,111.334462 L84.9333333,111.334462 L84.9333333,119.256513 Z M81.6551135,119.256513 L82.1677866,119.256513 L78.5254347,110.994974 L74.8954612,119.256513 L75.4071029,119.256513 L76.4891836,116.777538 L80.5627174,116.777538 L81.6551135,119.256513 Z M80.3584733,116.312923 L76.6944592,116.312923 L78.5254347,112.116 L80.3584733,116.312923 Z M67.8397583,119.256513 L72.9035662,119.256513 L72.9035662,118.790872 L68.3287062,118.790872 L68.3287062,115.193949 L72.5848217,115.193949 L72.5848217,114.729333 L68.3287062,114.729333 L68.3287062,111.799077 L72.9035662,111.799077 L72.9035662,111.334462 L67.8397583,111.334462 L67.8397583,119.256513 Z M64.8679045,119.256513 L62.3870616,115.702667 C63.4464486,115.702667 64.6533451,115.022667 64.6533451,113.564205 C64.6533451,111.911897 63.4464486,111.334462 62.0229296,111.334462 L59.2243737,111.334462 L59.2243737,119.256513 L59.7133215,119.256513 L59.7133215,115.702667 L61.8186855,115.702667 L64.2995284,119.256513 L64.8679045,119.256513 Z M62.0466549,115.238051 L59.7133215,115.238051 L59.7133215,111.799077 L62.0229296,111.799077 C63.2071323,111.799077 64.1633658,112.251385 64.1633658,113.541641 C64.1633658,114.842154 63.1730917,115.238051 62.0466549,115.238051 Z M54.2049219,119.458564 L54.9785735,119.458564 L54.9785735,111.334462 L53.7500147,111.334462 L53.7500147,117.094462 L49.0503389,111.211385 L48.3220749,111.211385 L48.3220749,119.256513 L49.5630121,119.256513 L49.5630121,113.620615 L54.2049219,119.458564 Z M43.7007958,115.895487 L46.4663425,111.334462 L45.1470085,111.334462 L43.0746537,114.820615 L41.0033304,111.334462 L39.6953434,111.334462 L42.4608901,115.895487 L42.4608901,119.256513 L43.7007958,119.256513 L43.7007958,115.895487 Z M34.9956676,119.380615 L38.5916004,111.323179 L37.2485411,111.323179 L34.6655762,117.276 L33.513351,114.644205 L34.9956676,111.323179 L33.6526083,111.323179 L32.8593575,113.151897 L32.0599175,111.323179 L30.7282051,111.323179 L32.2084586,114.650359 L31.0696434,117.276 L28.4639847,111.323179 L27.1322723,111.323179 L30.7168582,119.380615 L31.3997347,119.380615 L32.858326,116.110872 L34.312791,119.380615 L34.9956676,119.380615 Z M25.6974064,119.256513 L22.0333923,114.854462 L25.6282935,111.334462 L24.0696434,111.334462 L20.7584144,114.560103 L20.7584144,111.334462 L19.5185087,111.334462 L19.5185087,119.256513 L20.7584144,119.256513 L20.7584144,115.963179 L21.167934,115.588821 L24.2181845,119.256513 L25.6974064,119.256513 Z M15.6585028,119.256513 L16.957206,119.256513 L13.3715886,111.211385 L12.6887121,111.211385 L9.0824639,119.256513 L10.3904509,119.256513 L11.1867963,117.445231 L14.8631889,117.445231 L15.6585028,119.256513 Z M14.385588,116.346769 L11.6643973,116.346769 L13.0301503,113.236 L14.385588,116.346769 Z M7.94468022,115.295487 C7.94468022,113.053436 6.16734453,111.221641 3.97120542,111.221641 C1.77506631,111.221641 -0.000206307103,113.053436 -0.000206307103,115.295487 C-0.000206307103,117.546769 1.77506631,119.357026 3.97120542,119.357026 C6.16734453,119.357026 7.94468022,117.546769 7.94468022,115.295487 Z M6.703743,115.295487 C6.703743,116.946769 5.48549956,118.214462 3.97120542,118.214462 C2.45794282,118.214462 1.25104627,116.946769 1.25104627,115.295487 C1.25104627,113.666769 2.45794282,112.375487 3.97120542,112.375487 C5.48549956,112.375487 6.703743,113.666769 6.703743,115.295487 Z" id="Fill-3" stroke="none" fill="#6D6E70" fill-rule="evenodd" mask="url(#mask-2)"></path>
            </g>
        </g>
    </g>
</svg>