<?xml version="1.0" encoding="UTF-8"?>
<svg width="118px" height="79px" viewBox="0 0 118 79" version="1.1" xmlns="http://www.w3.org/2000/svg" xmlns:xlink="http://www.w3.org/1999/xlink">
    <!-- Generator: Sketch 51.2 (57519) - http://www.bohemiancoding.com/sketch -->
    <title>Group 6</title>
    <desc>Created with Sketch.</desc>
    <defs></defs>
    <g stroke="none" stroke-width="1" fill="none" fill-rule="evenodd">
        <g transform="translate(-170.000000, -51.000000)" fill="#FFFFFF">
            <g transform="translate(170.000000, 51.000000)">
                <path d="M95.9778,29.5132 C96.6298,29.5312 97.1728,29.0162 97.1908,28.3642 C97.2088,27.7122 96.6948,27.1692 96.0418,27.1512 C95.3898,27.1332 94.8468,27.6482 94.8288,28.3002 C94.8118,28.9522 95.3258,29.4952 95.9778,29.5132"></path>
                <path d="M96.6291,48.1343 L86.9231,23.5243 L115.1881,22.3803 L96.6291,48.1343 Z M79.6581,36.0963 L86.0971,23.9953 L95.4831,47.9303 L79.6581,36.0963 Z M68.7101,55.7873 L40.1561,33.8223 L60.3771,23.1453 L78.2661,36.4193 L68.7101,55.7873 Z M65.1831,74.1473 L61.8071,58.7813 L68.2161,57.3963 L65.1831,74.1473 Z M39.6071,34.5993 L67.8691,56.4393 L40.4301,62.2883 L39.6071,34.5993 Z M39.3421,62.3633 L19.3201,60.5783 L7.6581,41.4153 L23.7931,22.5753 L38.6151,34.0093 L39.3421,62.3633 Z M23.6481,74.8113 L19.6381,61.6393 L27.2201,62.3763 L23.6481,74.8113 Z M3.3071,47.8803 L6.9961,42.2033 L8.8581,45.4823 L3.3071,47.8803 Z M103.8101,16.1033 L105.4241,21.6623 L101.2651,21.8353 L103.8101,16.1033 Z M113.7921,4.5263 L116.1431,21.3043 L106.9721,21.6113 L113.7921,4.5263 Z M117.2161,21.3753 L114.2551,0.4303 L106.2181,20.5643 L103.9811,13.5483 L100.0021,21.9573 L85.8041,22.4753 L78.7751,35.4413 L60.4751,21.8623 L39.2081,33.0913 L23.6391,21.0803 L6.5501,41.0333 L0.8661,49.8773 L9.4321,46.4263 L18.4981,61.3223 L23.6561,77.9513 L28.3281,62.4743 L39.9371,63.5093 L60.7431,59.0113 L65.2381,78.8473 L69.3721,57.1463 L69.5891,56.5303 L79.1551,37.0793 L96.6091,50.0303 L117.2161,21.3753 Z"></path>
            </g>
        </g>
    </g>
</svg>
