<?xml version="1.0" encoding="utf-8"?>
<!-- Generator: Adobe Illustrator 22.1.0, SVG Export Plug-In . SVG Version: 6.00 Build 0)  -->
<svg version="1.1" id="Layer_1" xmlns="http://www.w3.org/2000/svg" xmlns:xlink="http://www.w3.org/1999/xlink" x="0px" y="0px"
	 width="258px" height="106px" viewBox="0 0 258 106" enable-background="new 0 0 258 106" xml:space="preserve">
<g>
	<polygon fill="#CBAC17" points="0,44.904995 11.7789249,35.8666039 9.8410749,21.1465378 23.9810982,27.0035267 
		25.9189472,41.7235909 14.1400223,50.761982 	"/>
	<polygon fill="#CBAC17" points="23.9810982,78.7947998 25.9189472,64.0747375 14.1400223,55.0363426 0,60.8933334 
		11.7789249,69.9317245 9.8410749,84.6517868 	"/>
	<polygon fill="#CBAC17" points="50.761982,91.6583023 41.7235909,79.8793793 27.0035267,81.8172302 21.1465378,95.9572525 
		35.8666039,94.0194016 44.904995,105.7983246 	"/>
	<polygon fill="#CBAC17" points="78.7947998,81.8172302 64.0747375,79.8793793 55.0363426,91.6583023 60.8933334,105.7983246 
		69.9317245,94.0194016 84.6517868,95.9572525 	"/>
	<polygon fill="#CBAC17" points="91.6583023,55.0363426 79.8793793,64.0747375 81.8172302,78.7947998 95.9572525,84.6517868 
		94.0194016,69.9317245 105.7983246,60.8933334 	"/>
	<polygon fill="#CBAC17" points="81.8172302,27.0035267 79.8793793,41.7235909 91.6583023,50.761982 105.7983246,44.904995 
		94.0194016,35.8666039 95.9572525,21.1465378 	"/>
	<polygon fill="#CBAC17" points="55.0363426,14.1400223 64.0747375,25.9189472 78.7947998,23.9810982 84.6517868,9.8410749 
		69.9317245,11.7789249 60.8933334,0 	"/>
	<polygon fill="#CBAC17" points="27.0035267,23.9810982 41.7235909,25.9189472 50.761982,14.1400223 44.904995,0 
		35.8666039,11.7789249 21.1465378,9.8410749 	"/>
</g>
<g>
	<path d="M147.3099976,10.46661v0.798213c-3.3721466,0.0446644-3.5048676,0.2220449-5.3679962,2.7506762
		c-0.4440918,0.6214705-0.9315643,1.2423029-1.3756561,1.9077997c-1.5970612,2.2625608-2.3952789,2.839366-3.3268433,3.5488901
		c1.0642853,0.798851,1.3309937,0.9762306,3.3715057,3.2834549c0.6654968,0.7541885,3.6822357,4.214386,4.3477325,4.9245472
		c1.1976471,1.2863293,2.5286407,1.2863293,3.4161835,1.2863293v0.798851h-9.3169556v-0.798851
		c1.3309937,0.0446644,2.4846039,0.0446644,2.4846039-0.6208324c0-0.798851-3.0614166-3.992979-4.0376434-5.013237
		c-2.0405121-2.1298447-2.7060089-2.7066498-3.9923401-2.7953415V26.88134c0,1.1982765,0,2.0851803,1.8191071,2.0851803h1.1976471
		v0.798851h-9.4056473v-0.798851c2.8393631,0.0886898,3.1500931-0.7095222,3.1500931-2.5732956v-12.998558
		c0-1.819109,0-2.1738701-3.282814-2.1298437V10.46661h9.6717148v0.798213
		c-2.8840332-0.0886908-3.1501007,0.7541866-3.1501007,2.5732956v5.9448042
		c1.1976318-0.1327152,2.3512421-0.3107338,4.4364319-2.7060108c1.3756561-1.5530386,3.1494598-4.2590513,3.1494598-5.013238
		c0-0.7101612-0.6208344-0.7101612-2.262558-0.798851V10.46661H147.3099976z"/>
	<path d="M162.1276703,11.264823c-3.1941376,0.1333542-3.1941376,0.6214705-3.1941376,3.3274822v11.0027056
		c0,2.8393669,0.6214752,3.194128,3.3715057,3.3715096v0.798851h-9.7597656v-0.798851
		c2.7500458-0.0886898,3.2381592-0.4434509,3.2381592-3.4601994V14.6369696c0-2.8393669-0.6208344-3.194766-3.3715057-3.3721466
		V10.46661h9.715744V11.264823z"/>
	<path d="M172.9523468,10.46661l13.043869,14.4629059V13.8381186c0-1.1976385,0-2.3512506-1.4643555-2.4846058
		c-0.31073-0.0440254-1.6417236-0.0886898-1.9077911-0.0886898V10.46661h7.9412842v0.798213
		c-2.8833923-0.0886908-3.1501007,0.7541866-3.1501007,2.5732956v16.0599709h-1.0642853l-14.3301849-15.9266157v11.844945
		c0,2.9727211,0.5327759,3.1060772,3.682251,3.1501026v0.798851h-8.2514038v-0.798851
		c2.8393707,0.0886898,3.1494751-0.7095222,3.1494751-2.5732956v-12.421752c0-2.5292692-1.2423096-2.61796-3.1054382-2.7066498
		V10.46661H172.9523468z"/>
	<path d="M211.2391357,15.8346081h-0.7541809c-0.3547668-1.1536121-0.7095337-2.3072243-1.7744446-3.3715086
		c-1.1095886-1.0649223-2.8393707-1.7750826-4.4810944-1.7750826c-4.1257019,0-6.7876892,3.9042883-6.7876892,9.3609772
		c0,7.7639141,4.7471619,9.2722874,7.1424408,9.2722874c1.6417389,0,2.6619873-0.5321426,3.4608459-0.9755936v-3.0167465
		c0-2.0851803,0-2.173872-3.5488892-2.2625618v-0.798851h9.4049988v0.798851
		c-2.4846039,0.1773815-2.6619873,0.1773815-2.6619873,2.5286312v2.4399414
		c-2.2178955,1.0649223-4.525116,2.1738701-7.6305542,2.1738701c-4.2590485,0-9.6276855-2.7506752-9.6276855-9.8044281
		c0-6.8770103,5.1465912-10.6479454,10.026474-10.6479454c3.2387848,0,5.1465912,1.4643478,5.8127289,1.4643478
		c0.3547516,0,0.532135-0.2667093,0.664856-0.4440899h0.7541809V15.8346081z"/>
	<path d="M144.6926727,49.5707512h-0.7541809c-0.3554077-1.1536102-0.7101593-2.3072243-1.7744446-3.3715057
		c-1.1095886-1.0649223-2.8393707-1.7750854-4.4810944-1.7750854c-4.1263428,0-6.7883301,3.9042892-6.7883301,9.3609772
		c0,7.763916,4.7471771,9.2722893,7.1430817,9.2722893c1.6417389,0,2.6619873-0.5321426,3.4602051-0.9755936v-3.0167465
		c0-2.0851822,0-2.1738739-3.5488892-2.2625618v-0.798851h9.4049988v0.798851
		c-2.483963,0.1773796-2.6613464,0.1773796-2.6613464,2.5286293v2.4399414
		c-2.2185364,1.0649223-4.5257568,2.1738701-7.6305542,2.1738701c-4.2596893,0-9.6276932-2.7506752-9.6276932-9.8044281
		c0-6.8770103,5.1465988-10.6479454,10.0264816-10.6479454c3.2387848,0,5.1465912,1.4643478,5.812088,1.4643478
		c0.3547516,0,0.532135-0.2667084,0.6654968-0.444088h0.7541809V49.5707512z"/>
	<path d="M157.2031097,53.1643066h4.7918396c1.5964203,0,2.1291962,0,2.3065796-2.395916h0.8875427v5.9894676h-0.8875427
		c-0.0886841-2.4399414-0.4434509-2.617321-2.6173248-2.617321h-4.4810944v6.3442307
		c0,1.9071617,0.0893402,1.9071617,1.9964905,1.9071617h3.3721466c1.9958649,0,3.0167542-0.2660713,3.8589935-3.5935555h0.8435211
		l-0.3994293,4.7031403h-16.0159454v-0.7541847c2.8393707,0.0886879,3.1501007-0.7541885,3.1501007-2.5732956V47.5742645
		c0-2.2625618-0.6654968-2.6173248-3.1501007-2.5732994V44.202755h15.1730652l0.1773834,4.214386h-0.7982178
		c-0.4887543-2.9280586-1.1982727-3.2387924-3.3721466-3.2387924h-4.8358612V53.1643066z"/>
	<path d="M182.6240692,43.4485664c5.1019287,0,10.5592499,3.3268471,10.5592499,10.1591911
		c0,7.4538155-5.7234039,10.4259033-10.6032867,10.4259033c-4.8364868,0-10.6032715-2.9720879-10.6032715-10.4259033
		C171.9767609,46.7754135,177.6995239,43.4485664,182.6240692,43.4485664z M182.4907074,44.202755
		c-4.5697784,0-7.0537567,4.3917656-7.0537567,9.0502396c0,4.8798828,1.1976471,6.8323479,2.4399414,8.0746498
		c1.3309937,1.3309937,2.9280548,1.951828,4.6584778,1.951828c3.3715057,0,7.1871033-2.5286331,7.1871033-9.6270523
		C189.7224731,46.820076,186.3063049,44.202755,182.4907074,44.202755z"/>
	<path d="M202.9877472,59.5525627c0,2.6179581,0.2660675,3.1501007,2.1738739,3.1501007h1.2863312v0.798851h-9.8044434v-0.798851
		h0.7101746c2.173233,0,2.4399414-0.8869019,2.4399414-2.5732956V47.5742645c0-0.4881172,0-1.1976395-0.3547668-1.6417313
		c-0.3554077-0.4874763-0.6214752-0.4874763-2.8393707-0.6208305v-0.798851
		c1.8631439-0.1773796,4.6578369-0.5321426,7.8079376-0.5321426c3.9042969,0,8.6067963,0.8875427,8.6067963,5.5453796
		c0,3.6382179-2.7947083,4.6144485-4.2150269,5.1019287c0.8435211,0.7548218,1.1089478,1.0208931,2.7066498,4.4370689
		c1.419693,3.0607719,2.262558,3.6822433,3.903656,3.9483147v0.7982101
		c-3.0607758-0.1327133-4.9245453-0.8428764-6.7876892-3.7709312c-0.4874725-0.7541885-2.3952789-4.2590523-2.794693-4.9245491
		h-2.8393707V59.5525627z M202.9877472,54.3179169h1.9958496c2.3518829,0,4.7031403-1.0649223,4.7031403-4.7031403
		c0-3.7262688-2.7953339-4.7465248-4.7471619-4.7465248c-0.7541962,0-1.5083771,0.0440254-1.951828,0.0886879V54.3179169z"/>
	<path d="M235.8618774,49.5707512h-0.7541962c-0.3547516-1.1536102-0.7101593-2.3072243-1.7750854-3.3715057
		c-1.1089478-1.0649223-2.8393555-1.7750854-4.4804535-1.7750854c-4.1256866,0-6.787674,3.9042892-6.787674,9.3609772
		c0,7.763916,4.7471619,9.2722893,7.1424408,9.2722893c1.6417236,0,2.6619873-0.5321426,3.4608307-0.9755936v-3.0167465
		c0-2.0851822,0-2.1738739-3.54953-2.2625618v-0.798851h9.4056549v0.798851
		c-2.4846191,0.1773796-2.6619873,0.1773796-2.6619873,2.5286293v2.4399414
		c-2.2185364,1.0649223-4.5251312,2.1738701-7.6312103,2.1738701c-4.2584076,0-9.6270447-2.7506752-9.6270447-9.8044281
		c0-6.8770103,5.1465912-10.6479454,10.026474-10.6479454c3.2388,0,5.1465912,1.4643478,5.812088,1.4643478
		c0.3547668,0,0.5321503-0.2667084,0.6654968-0.444088h0.7541962V49.5707512z"/>
	<path d="M247.9288635,53.1643066h4.7911835c1.5970764,0,2.1292114,0,2.3065948-2.395916h0.8881836v5.9894676h-0.8881836
		c-0.0880585-2.4399414-0.4428101-2.617321-2.6173401-2.617321h-4.4804382v6.3442307
		c0,1.9071617,0.0886841,1.9071617,1.9958496,1.9071617h3.3721466c1.9964905,0,3.0167389-0.2660713,3.8596344-3.5935555H258
		l-0.3994141,4.7031403h-16.0159607v-0.7541847c2.8393707,0.0886879,3.1501007-0.7541885,3.1501007-2.5732956V47.5742645
		c0-2.2625618-0.6661224-2.6173248-3.1501007-2.5732994V44.202755h15.1724243l0.1773987,4.214386h-0.7982178
		c-0.4881134-2.9280586-1.1976471-3.2387924-3.3721466-3.2387924h-4.8352203V53.1643066z"/>
	<path d="M143.80513,86.9444733v-5.1906128c0-2.2625656-0.2220459-2.8393707-3.3715057-3.0167465v-0.7982178h9.937149v0.7982178
		c-3.0167542,0.1773758-3.3715057,0.7101593-3.3715057,3.0167465v11.6681976c0,2.4846115,0.62146,2.8393707,3.3715057,3.0167542
		v0.798851h-9.937149v-0.798851c2.7060089-0.1773834,3.3715057-0.5321426,3.3715057-3.0167542v-5.3679962h-10.1591797v5.3679962
		c0,2.4846115,0.6208191,2.8393707,3.3715057,3.0167542v0.798851h-9.9377899v-0.798851
		c2.7060089-0.1773834,3.3715057-0.5321426,3.3715057-3.0167542V81.7538605c0-2.4839706-0.6208344-2.8393707-3.3715057-3.0167465
		v-0.7982178h9.9377899v0.7982178c-2.7066498,0.1773758-3.3715057,0.4881134-3.3715057,3.0167465v5.1906128H143.80513z"/>
	<path d="M164.8783417,77.9388962v0.7982178c-2.9280548,0.1333542-3.3721466,0.7541809-3.3721466,3.0167465v8.074646
		c0,1.4196854,0,2.9727249,0.6214752,4.1256943c0.4881134,0.9322052,1.8631287,2.3959198,4.9245453,2.3959198
		c1.8184662,0,4.6138-0.488121,5.6340637-3.0614166c0.4881134-1.1529694,0.4881134-3.1054382,0.4881134-4.3917618v-6.5662766
		c0-3.0167465,0-3.5048676-3.4155273-3.5935516v-0.7982178h7.9412842v0.7982178
		c-2.9286957-0.0886917-3.1947632,0.7541809-3.1947632,2.5732956v7.9859543c0,1.3309937,0,3.5488892-0.7982178,5.1459579
		c-1.3756561,2.7953415-4.9692078,3.4608307-7.2317657,3.4608307c-1.6857605,0-5.6787262-0.2660675-7.4531708-3.4608307
		c-0.6654968-1.1976395-0.6654968-3.0167542-0.6654968-4.0816727v-8.6954803c0-2.3512497-0.0446777-2.750679-3.2834625-2.9280548
		v-0.7982178H164.8783417z"/>
	<path d="M182.1901855,78.2489929c2.2185364-0.221405,5.3239746-0.5321426,7.9859619-0.5321426
		c1.2869568,0,7.9412842,0.0886917,7.9412842,4.3037186c0,2.972084-3.1947632,3.8596268-4.4810944,4.214386
		c2.8393707,0.7095184,5.8561096,2.0405121,5.8561096,5.3679962c0,4.2150269-4.5697784,5.6347122-6.876358,5.6347122h-11.1354218
		v-0.798851c3.3274689-0.4434586,3.6375732-0.7982178,3.6375732-3.8156052V81.3990936
		c0-1.8191071-0.0440216-2.262558-2.9280548-2.3512497V78.2489929z M188.3570251,85.9242172h1.6417389
		c3.3274841,0,4.7911835-1.1976395,4.7911835-3.8596268c0-2.8393631-2.3952789-3.4161682-4.5697784-3.5048599
		c-0.7541962,0-1.3750153,0-1.8631439,0.0446625V85.9242172z M188.3570251,93.6881332
		c0,1.4643478,0.0446777,2.6179581,2.6173248,2.6179581c2.6619873,0,5.1465912-1.0649185,5.1465912-4.5257568
		c0-3.5935516-2.3512421-4.9245453-5.7674255-4.9245453h-1.9964905V93.6881332z"/>
</g>
</svg>
