<?xml version="1.0" encoding="UTF-8"?>
<svg width="292px" height="171px" viewBox="0 0 292 171" version="1.1" xmlns="http://www.w3.org/2000/svg" xmlns:xlink="http://www.w3.org/1999/xlink">
    <!-- Generator: Sketch 51.2 (57519) - http://www.bohemiancoding.com/sketch -->
    <title>the_heirloom_logo</title>
    <desc>Created with Sketch.</desc>
    <defs>
        <filter x="-2.3%" y="-5.0%" width="104.5%" height="111.8%" filterUnits="objectBoundingBox" id="filter-1">
            <feOffset dx="0" dy="5" in="SourceAlpha" result="shadowOffsetOuter1"></feOffset>
            <feGaussianBlur stdDeviation="10" in="shadowOffsetOuter1" result="shadowBlurOuter1"></feGaussianBlur>
            <feColorMatrix values="0 0 0 0 0.607843137   0 0 0 0 0.607843137   0 0 0 0 0.607843137  0 0 0 0.3 0" type="matrix" in="shadowBlurOuter1" result="shadowMatrixOuter1"></feColorMatrix>
            <feMerge>
                <feMergeNode in="shadowMatrixOuter1"></feMergeNode>
                <feMergeNode in="SourceGraphic"></feMergeNode>
            </feMerge>
        </filter>
    </defs>
    <g id="Projects-✓✓" stroke="none" stroke-width="1" fill="none" fill-rule="evenodd">
        <g id="Projects_Main" transform="translate(-993.000000, -337.000000)" fill="#004D71">
            <g id="heirloom_project" filter="url(#filter-1)" transform="translate(0.000000, 269.000000)">
                <g id="the_heirloom" transform="translate(916.000000, 0.000000)">
                    <g id="the_heirloom_logo" transform="translate(94.000000, 80.000000)">
                        <path d="M123.395084,52.8360705 L123.078967,53.1524518 L121.685487,54.5470921 C120.735164,55.4351281 119.974906,56.0057971 119.277674,56.323164 C118.961556,56.5133871 118.61294,56.7036101 118.137286,56.7036101 C116.806833,56.7036101 116.110586,55.8786532 116.173613,54.5470921 C116.237624,53.3436604 116.870845,51.8218763 118.074259,50.0467899 L120.861217,46.1792504 L121.621476,46.1792504 C123.966263,46.1792504 126.373092,45.9249626 128.71591,45.3552791 C126.119016,48.7783079 124.345408,51.2512072 123.395084,52.8360705 Z M117.567092,45.3552791 C112.436332,44.7205453 109.079179,42.755236 107.558662,39.4583655 C106.355248,36.9854662 106.418275,34.8309194 107.621689,32.8656101 C109.205233,30.2665525 111.295944,28.8078475 113.893822,28.4904806 C115.666446,28.3002576 117.567092,28.6176245 119.594776,29.5056604 C121.305358,30.2665525 122.571799,31.6611928 123.269031,33.7526604 C123.269031,33.7526604 123.638328,34.9127252 123.820514,35.582941 C123.847103,35.6903727 123.876647,35.7968187 123.902252,35.9081928 C123.937704,36.1033439 123.972172,36.2728691 124.00664,36.4276101 C124.070651,36.7420201 124.134662,37.0268619 124.21837,37.1766748 C124.292229,37.2742504 124.365103,37.3462 124.437978,37.4023799 C124.45275,37.4112504 124.463583,37.4260345 124.479339,37.4339194 C124.582742,37.5019266 124.686145,37.5275525 124.789548,37.4930561 C123.078967,39.5224302 121.179305,41.8681856 119.087609,44.4672432 L118.366742,45.4311712 L117.567092,45.3552791 Z M139.548609,35.9081928 C141.132153,34.1961856 142.399579,32.9286892 143.349902,32.104718 C143.919111,31.5340489 144.426278,31.406905 144.806408,31.8504302 C145.105784,32.1510417 145.373647,32.8419554 145.373647,33.3633439 C145.373647,34.3213583 144.680354,36.4157827 142.779708,38.1277899 C140.372879,40.2833223 137.204807,42.1214878 133.214434,43.5792072 C135.811328,40.2202432 137.964081,37.6832791 139.548609,35.9081928 Z M143.227788,50.3661281 C144.820195,48.5999122 146.028533,47.5157396 147.107864,46.9499986 C147.423982,46.8248259 147.679043,46.7627324 147.932134,46.8277827 C148.121214,46.8928331 148.247267,46.9559122 148.310294,47.0840417 C148.37332,47.2742647 148.308324,47.5275669 147.989252,47.9701065 C147.671164,48.4116604 147.288081,48.7901353 146.715917,49.2307036 C145.379556,50.3020633 144.088495,50.8648475 142.885081,50.7958547 C143.020982,50.6115453 143.161807,50.4489194 143.227788,50.3661281 Z M150.167609,54.0552719 C150.397065,53.8009842 150.601902,53.5269842 150.805754,53.2519986 C151.136643,52.8084734 151.643811,52.0810921 151.895917,51.5892719 C151.933339,51.5173223 151.960913,51.4542432 152.029849,51.2679626 C152.129313,50.9939626 151.887054,50.7505165 151.69502,50.6854662 C151.502986,50.6194302 151.298149,50.6805381 151.146491,50.855977 C150.993849,51.0294446 150.817571,51.4778978 150.646217,51.8918547 C150.327145,52.6635885 150.051404,53.070646 149.813084,53.4185669 C149.80816,53.4264518 149.776647,53.4619338 149.734301,53.5102288 C149.6437,53.6117468 149.473332,53.8019698 149.273419,54.0257036 C148.409757,54.8890993 147.413149,55.6115525 146.274731,56.0531065 C144.791636,56.6306748 143.205138,56.8337108 141.800826,56.5597108 C140.977541,56.3655453 140.728389,55.7308115 140.923377,54.5263942 C141.182377,53.4510921 141.822491,52.1855669 142.843719,50.8589338 C143.47497,51.3064014 144.234244,51.4374878 145.057529,51.3783511 C146.769096,51.1960129 148.039476,50.569164 148.804659,49.5589122 C149.186757,49.1173583 149.379776,48.610754 149.319704,47.9760201 C149.322659,47.4053511 149.198575,46.9618259 148.883442,46.6424878 C148.505282,46.1969914 147.872062,46.0038115 147.048776,45.9988835 C146.098453,45.994941 145.020107,46.3063942 143.940776,46.9342288 C142.542373,47.6882216 141.334035,48.6324374 140.377803,49.7688475 C139.407784,50.8313367 138.819864,51.8928403 138.550031,52.8942216 C138.457461,52.9829266 138.382617,53.0578331 138.282168,53.1524518 L136.888689,54.5470921 C136.001392,55.4351281 135.368172,56.0057971 134.925016,56.2590993 C134.101731,56.8297683 133.467525,56.8938331 133.086411,56.4503079 C132.770294,56.132941 132.707267,55.6894158 133.02437,54.9916029 C133.214434,54.5470921 133.721602,53.7871856 134.417849,52.8360705 C135.937381,50.7436173 136.507575,49.0325957 136.064419,47.8271928 C135.748301,46.8129986 135.177122,46.2423295 134.353837,46.1151856 C133.02437,45.9249626 131.820955,46.2423295 130.616556,47.0032216 C131.187735,46.1792504 131.883982,45.2922 132.64424,44.2770201 C137.015727,42.8193007 140.498932,40.8530058 143.096811,38.5072504 C145.186537,36.6690849 145.915282,34.6860345 145.915282,33.2864662 C145.915282,32.7286101 145.814833,32.2978978 145.566666,31.7242719 C145.305697,31.1191065 144.996472,30.836236 144.553316,30.6460129 C143.221879,30.0763295 141.512282,30.836236 139.422556,32.9286892 C136.698624,35.5277468 133.404499,39.3322072 129.476168,44.404164 L129.16005,44.7846101 C126.563157,45.3552791 123.849073,45.6706748 121.252179,45.6706748 C121.950396,44.7195597 122.825875,43.6432719 123.712187,42.5650129 L126.880259,38.5713151 C127.132366,38.1277899 127.132366,37.7463583 126.943286,37.3028331 C126.753221,36.8593079 126.373092,36.5429266 125.801913,36.3527036 L125.295731,36.9223871 C125.287852,36.8602935 125.257324,36.7242791 125.216948,36.5616532 C125.062335,35.8460993 124.833864,35.1295597 124.537442,34.4140058 C124.433054,34.146905 124.325712,33.8936029 124.21837,33.6895813 C123.141993,31.406905 121.685487,29.8851209 119.783856,29.0611496 C117.821168,28.2371784 115.921506,27.8567324 114.082902,28.0469554 C111.232917,28.3002576 108.889115,29.8220417 107.178533,32.5482432 C106.672351,33.4352935 106.311917,34.5056676 106.249875,35.7100849 C106.185864,37.041646 106.482286,38.3810921 107.051495,39.7126532 C108.69905,43.135682 112.18324,45.1650561 117.50505,45.8618835 L118.001385,45.9190489 L115.414339,49.4120561 C113.830795,51.6316532 113.386655,53.4698187 114.082902,55.054682 C114.336978,55.6253511 114.780134,56.132941 115.350328,56.5764662 C115.984533,57.0199914 116.724111,57.2102144 117.314001,57.2102144 L117.693145,57.2102144 C118.328335,57.2102144 118.961556,57.0840561 119.53175,56.7666892 C120.227997,56.4503079 121.052267,55.8155741 122.00259,54.864459 L122.761864,54.1676317 C122.635811,54.4840129 122.635811,54.674236 122.698837,54.8013799 C123.141993,55.6253511 123.775214,56.132941 124.66251,56.1960201 C125.738887,54.2307108 126.943286,52.1382576 128.399792,49.9827252 C129.033012,49.0956748 129.033012,49.0956748 129.476168,48.4619266 C129.919324,48.0814806 130.363465,47.7641137 130.679583,47.5738906 C131.883982,46.7499194 132.897332,46.4956317 133.593579,46.8129986 C134.037719,47.0032216 134.101731,47.5108115 133.910681,48.270718 C133.721602,49.2218331 133.086411,50.427236 132.074046,51.9490201 C131.502868,52.7729914 131.187735,53.6600417 131.250761,54.4840129 C131.314773,55.4351281 131.820955,56.1960201 132.707267,56.8297683 C133.086411,57.0840561 133.404499,57.2102144 133.65759,57.2102144 C134.164757,57.2102144 134.67094,57.0199914 135.177122,56.6395453 C135.621263,56.323164 136.318495,55.7515094 137.204807,54.9285237 L138.387541,53.7950705 C138.311712,54.6082 138.554955,55.3129122 139.14386,55.8490849 C139.710115,56.4227108 140.43689,56.7410633 141.449256,56.9992935 C141.829385,57.0653295 142.366096,57.1786748 142.935305,57.1786748 C144.492259,57.1786748 145.996035,56.8672216 147.344214,56.1733511 L147.341259,56.1763079 C148.327035,55.7682647 149.450681,54.846718 150.167609,54.0552719 Z" id="Fill-13"></path>
                        <path d="M1.60609544,72.3154007 C3.97254791,72.6465662 4.19314106,72.9225374 4.19314106,76.724041 L4.19314106,89.0698108 C4.19314106,92.8713144 3.91838441,92.8713144 1.60609544,93.4774655 L0.999464259,93.6440338 C0.614411027,93.9190194 0.669559316,94.8553504 1.11074563,95.0209331 C2.81640342,94.9115302 4.52304601,94.8553504 6.28582167,94.8553504 C7.99246426,94.8553504 9.81038821,94.9115302 12.3432703,95.0209331 C12.7844567,94.8553504 12.8386202,93.9190194 12.4535669,93.6440338 L10.9665327,93.4774655 C8.59811065,93.2014942 8.37850228,92.8713144 8.37850228,89.0698108 L8.37850228,84.7153791 C8.37850228,83.3384799 8.48879886,83.2832856 10.3608863,83.2832856 L20.0522133,83.2832856 C21.923316,83.2832856 22.0345973,83.3384799 22.0345973,84.7153791 L22.0345973,89.0698108 C22.0345973,92.8713144 21.8140042,93.0920914 19.4455821,93.4774655 L18.3997342,93.6440338 C18.014681,93.9190194 18.0698293,94.8553504 18.5110156,95.0209331 C20.6578597,94.9115302 22.3645023,94.8553504 24.1272779,94.8553504 C25.8339205,94.8553504 27.6518445,94.9115302 29.9631487,95.0209331 C30.404335,94.8553504 30.4594833,93.9190194 30.07443,93.6440338 L28.807989,93.4774655 C26.4395669,93.1472856 26.2189738,92.8713144 26.2189738,89.0698108 L26.2189738,76.724041 C26.2189738,72.9225374 26.4395669,72.7017604 28.807989,72.3154007 L29.8538369,72.1508036 C30.2388901,71.8748324 30.1837418,70.9375158 29.7425555,70.7719331 C27.5957114,70.8823216 25.8890688,70.9375158 24.1272779,70.9375158 C22.3645023,70.9375158 20.6578597,70.8823216 18.5110156,70.7719331 C18.0698293,70.9375158 18.014681,71.8748324 18.3997342,72.1508036 L19.4455821,72.3154007 C21.8140042,72.7017604 22.0345973,72.9225374 22.0345973,76.724041 L22.0345973,80.0859619 C22.0345973,81.5200266 21.8140042,81.5200266 20.0522133,81.5200266 L10.3608863,81.5200266 C8.59811065,81.5200266 8.37850228,81.5200266 8.37850228,80.0859619 L8.37850228,76.724041 C8.37850228,72.9225374 8.65424373,72.7569547 10.9665327,72.3154007 L11.7927722,72.1508036 C12.1778255,71.8748324 12.1226772,70.9375158 11.6824757,70.7719331 C9.75523992,70.8823216 8.04761255,70.9375158 6.28582167,70.9375158 C4.52304601,70.9375158 2.81640342,70.8823216 0.44896616,70.7719331 C0.00876463878,70.9375158 -0.0463836502,71.8748324 0.338669582,72.1508036 L1.60609544,72.3154007 Z" id="Fill-15"></path>
                        <path d="M40.698157,93.4776626 L39.2111228,93.6432453 C38.8260696,93.9192165 38.8812179,94.8555475 39.3204346,95.0211302 C41.9636133,94.9117273 43.6722255,94.8555475 45.4330316,94.8555475 L50.2791875,94.8555475 C53.2522711,94.8555475 56.1711913,94.9117273 59.6396247,95.0211302 C60.2462559,93.9734252 61.0153776,91.218641 61.2921038,88.9034396 C61.1266589,88.407677 60.2462559,88.2982741 59.8602179,88.6836482 C58.2628871,93.0922885 56.2263395,93.2578712 52.701773,93.2578712 C49.5622597,93.2578712 48.5725449,93.0370942 48.0762103,92.4861374 C47.5808605,91.8799863 47.4705639,90.1719216 47.4705639,88.5180655 L47.4705639,84.5509791 C47.4705639,83.4490655 47.4705639,83.2834827 48.5164118,83.2834827 L51.1044422,83.2834827 C54.0233624,83.2834827 54.2991038,83.7240511 54.7383205,85.3779072 L55.014062,86.423641 C55.2888186,86.8100007 56.1150582,86.7548065 56.3907996,86.3132525 C56.280503,84.7155763 56.280503,83.7240511 56.280503,82.3471518 C56.280503,81.0786698 56.280503,80.086159 56.3907996,78.4874971 C56.1150582,78.0479144 55.2888186,77.9917345 55.014062,78.3780942 L54.7383205,79.4257993 C54.2991038,81.0786698 54.0233624,81.5202237 51.1044422,81.5202237 L48.5164118,81.5202237 C47.4705639,81.5202237 47.4705639,81.4088496 47.4705639,80.4173245 L47.4705639,74.2996338 C47.4705639,72.5905835 47.5257122,72.5353892 49.4529479,72.5353892 L51.8765183,72.5353892 C53.1971228,72.5353892 55.6748567,72.5353892 56.5562445,73.8590655 C56.8861494,74.3548281 57.2160544,75.070382 57.5479289,76.5044468 C57.8778338,76.8898209 58.7582369,76.8346266 58.97883,76.3940583 L58.3731837,70.7721302 C57.8778338,70.8825187 55.6748567,70.9377129 53.2522711,70.9377129 L45.4330316,70.9377129 C43.6160924,70.9377129 41.908465,70.8825187 40.312119,70.7721302 C39.8709327,70.9938928 39.8157844,71.9302237 40.2028072,72.1510007 L40.9738985,72.3155978 C43.0655943,72.7571518 43.2852027,72.9227345 43.2852027,76.7232525 L43.2852027,89.0690223 C43.2852027,92.8715115 43.0655943,93.2016914 40.698157,93.4776626" id="Fill-17"></path>
                        <path d="M80.2320943,72.3154007 L81.2779422,72.1508036 C81.6639802,71.8748324 81.6088319,70.9375158 81.1676456,70.7719331 C79.0208015,70.8823216 77.3141589,70.9375158 75.5513833,70.9375158 C73.7895924,70.9375158 72.0829498,70.8823216 69.9351209,70.7719331 C69.4939346,70.9375158 69.4397711,71.8748324 69.8248243,72.1508036 L70.8706722,72.3154007 C73.2390943,72.7017604 73.4596875,72.9225374 73.4596875,76.724041 L73.4596875,89.0698108 C73.4596875,92.8713144 73.2390943,93.0920914 70.8706722,93.4774655 L69.8248243,93.6440338 C69.4397711,93.9190194 69.4939346,94.8553504 69.9351209,95.0209331 C72.0829498,94.9115302 73.7895924,94.8553504 75.5513833,94.8553504 C77.2590106,94.8553504 79.074965,94.9115302 81.1676456,95.0209331 C81.6088319,94.8553504 81.6639802,93.9190194 81.2779422,93.6440338 L80.2320943,93.4774655 C77.864657,93.0920914 77.6440639,92.8713144 77.6440639,89.0698108 L77.6440639,76.724041 C77.6440639,72.9225374 77.864657,72.7017604 80.2320943,72.3154007" id="Fill-19"></path>
                        <path d="M98.8969342,73.914654 C98.8969342,72.4805892 99.2819875,72.3711863 101.31952,72.3711863 C105.173991,72.3711863 107.101227,74.7957906 107.101227,77.5505748 C107.101227,81.3540496 105.22914,82.7861432 101.65041,82.7861432 C98.9520825,82.7861432 98.8969342,82.7861432 98.8969342,81.4092439 L98.8969342,73.914654 Z M100.439117,84.2754022 C101.31952,84.2754022 102.200908,84.4951935 102.642094,85.1565388 C103.798238,86.9197978 105.285273,89.3444022 106.661025,91.1076612 C109.084596,94.1945964 111.065995,95.2423014 114.369968,95.2423014 C115.415816,95.2423014 116.187892,95.1309273 116.683242,94.9663302 C116.902851,94.8017331 116.902851,94.3049849 116.683242,94.0842079 C115.801854,94.0290137 114.756006,93.7530424 113.764322,92.9271 C111.947383,91.4388266 109.524797,88.7392367 106.771322,84.1098194 C106.605877,83.8338482 106.550729,83.5026827 106.771322,83.2828914 C108.919151,82.5111576 111.671641,80.9134813 111.671641,77.3859777 C111.671641,71.5994525 106.110527,70.7725245 100.989615,70.7725245 C97.9613829,70.7725245 94.8770179,70.8829129 91.8487859,71.1036899 C91.2982878,71.2692727 91.4085844,72.4263806 91.8487859,72.4805892 L93.3909684,72.7023518 C94.6564247,72.8669489 94.7125578,73.8042655 94.7125578,77.3859777 L94.7125578,89.0694165 C94.7125578,92.8719058 94.4919646,92.9822942 92.1245274,93.4780568 L91.2982878,93.6436396 C90.8019532,93.8644165 90.8571015,94.8559417 91.4085844,95.0215245 C93.3368049,94.911136 95.0424627,94.8559417 96.8042536,94.8559417 C98.511881,94.8559417 100.32882,94.911136 102.642094,95.0215245 C103.081311,94.8559417 103.137444,93.9186252 102.751406,93.6436396 L101.484965,93.4780568 C99.1175274,93.1468914 98.8969342,92.8719058 98.8969342,89.0694165 L98.8969342,85.1565388 C98.8969342,84.3857906 99.006246,84.2754022 100.439117,84.2754022 Z" id="Fill-21"></path>
                        <path d="M124.389428,93.4776626 L123.34358,93.6432453 C122.958527,93.9192165 123.013675,94.8555475 123.453876,95.0211302 C125.601705,94.9117273 127.308348,94.8555475 129.069154,94.8555475 L133.585405,94.8555475 C136.393044,94.8555475 139.311964,94.9117273 142.781382,95.0211302 C143.387029,93.9734252 144.15812,91.218641 144.432876,88.9034396 C144.267432,88.407677 143.387029,88.2982741 143.00099,88.6836482 C141.404644,93.0922885 139.366127,93.2578712 136.00799,93.2578712 C133.144219,93.2578712 132.263816,92.8715115 131.768466,92.3757489 C131.272131,91.8247921 131.161835,90.2813245 131.161835,88.5742453 L131.161835,76.7232525 C131.161835,72.9227345 131.437576,72.8665547 133.75085,72.3155978 L134.465808,72.1510007 C134.852831,71.8750295 134.795713,70.9377129 134.356496,70.7721302 C132.538572,70.8825187 130.83193,70.9377129 129.069154,70.9377129 C127.308348,70.9377129 125.601705,70.8825187 123.453876,70.7721302 C123.013675,70.9377129 122.958527,71.8750295 123.34358,72.1510007 L124.389428,72.3155978 C126.75785,72.7019576 126.977458,72.9227345 126.977458,76.7232525 L126.977458,89.0690223 C126.977458,92.8715115 126.75785,93.0922885 124.389428,93.4776626" id="Fill-23"></path>
                        <path d="M164.915443,71.7643453 C170.972892,71.7643453 173.780531,77.7164532 173.780531,83.6133669 C173.780531,91.1641367 169.760614,94.0283237 165.576238,94.0283237 C159.188884,94.0283237 156.601839,87.9116187 156.601839,82.235482 C156.601839,74.4659065 160.95166,71.7643453 164.915443,71.7643453 M165.301481,95.6279712 C173.064588,95.6279712 178.681835,90.2268201 178.681835,82.7864388 C178.681835,76.0625971 174.166569,70.1666691 165.301481,70.1666691 C157.316797,70.1666691 151.69955,75.7876115 151.69955,83.1176043 C151.69955,90.0612374 156.766299,95.6279712 165.301481,95.6279712" id="Fill-25"></path>
                        <path d="M210.451484,83.6133669 C210.451484,91.1641367 206.431568,94.0283237 202.247191,94.0283237 C195.858853,94.0283237 193.271807,87.9116187 193.271807,82.235482 C193.271807,74.4659065 197.621629,71.7643453 201.585412,71.7643453 C207.64286,71.7643453 210.451484,77.7164532 210.451484,83.6133669 M188.370503,83.1176043 C188.370503,90.062223 193.436267,95.6279712 201.97145,95.6279712 C209.734556,95.6279712 215.351803,90.2268201 215.351803,82.7864388 C215.351803,76.0625971 210.836537,70.1666691 201.97145,70.1666691 C193.986765,70.1666691 188.370503,75.7876115 188.370503,83.1176043" id="Fill-27"></path>
                        <path d="M257.088619,72.3154007 L258.298927,72.1508036 C258.68595,71.8748324 258.628832,70.9375158 258.134467,70.7719331 C256.538121,70.8823216 254.94079,70.9375158 253.619201,70.9375158 C252.738798,70.9375158 251.636817,70.8823216 250.425524,70.7719331 C249.544137,73.3631058 249.26938,74.3004223 246.625216,79.3694223 L243.872726,84.6601849 C242.826878,86.6442209 241.835194,88.4084655 241.615585,88.5178683 C241.394992,88.3522856 240.018254,85.8724871 239.632216,85.1569331 L236.218931,78.5986741 C234.346844,74.960782 233.355159,73.1985086 233.355159,70.7719331 C231.593368,70.9375158 230.437224,70.9375158 229.335243,70.9375158 C227.849194,70.9375158 226.581768,70.8823216 225.096703,70.7719331 C224.600368,70.9936957 224.655517,71.8748324 224.985422,72.1508036 L226.307011,72.3154007 C228.179098,72.5361777 228.784745,73.3631058 228.784745,75.1273504 C228.784745,78.8746453 228.45484,87.7471201 228.013654,90.7226813 C227.737912,92.651523 227.573452,93.2014942 225.756513,93.4774655 L224.600368,93.6440338 C224.159182,93.9190194 224.21433,94.8011417 224.600368,95.0209331 C226.307011,94.9115302 227.958505,94.8553504 229.170783,94.8553504 C230.656832,94.8553504 232.254163,94.9115302 233.685064,95.0209331 C234.071102,94.8011417 234.126251,93.8638252 233.741197,93.6440338 L231.924258,93.4774655 C230.382076,93.3128683 230.326927,92.0995806 230.326927,89.2896022 C230.326927,86.5890266 230.382076,84.2757964 230.437224,82.0709835 C230.492372,80.5275158 230.547521,76.8344295 230.768114,76.5594439 C231.20733,76.724041 232.363475,79.6453935 232.970106,80.8576957 L236.549821,87.8013288 C237.484387,89.6207676 239.193,93.1472856 239.797661,95.130336 C240.128551,95.3530842 240.569737,95.3530842 240.844494,95.130336 C241.45014,93.3680626 244.313912,87.6367317 244.754114,86.8098036 L248.113235,80.471336 C248.883342,79.0392424 250.315228,76.2834727 250.480673,76.2834727 C250.646117,76.3948468 250.646117,77.2217748 250.646117,77.8821345 L250.646117,90.6122928 C250.646117,92.8171058 250.646117,93.2586597 248.883342,93.4774655 L247.672049,93.6440338 C247.286996,93.8638252 247.342144,94.7459475 247.727197,95.0209331 C249.26938,94.9115302 250.976022,94.8553504 252.573353,94.8553504 C253.949106,94.8553504 256.096935,94.9115302 258.078334,95.0209331 C258.519521,94.8011417 258.519521,93.8638252 258.134467,93.6440338 L256.538121,93.4774655 C254.830494,93.3128683 254.830494,91.9901777 254.720197,90.7778755 C254.444456,87.4721345 254.444456,82.7865374 254.444456,76.9458036 C254.444456,73.6932856 254.554752,72.6465662 257.088619,72.3154007" id="Fill-29"></path>
                        <polygon id="Fill-31" points="113.571205 17.0393504 129.328843 7.91258777 144.984064 16.9949978 156.227421 20.4682928 258.470379 20.4682928 258.470379 19.4826813 156.37514 19.4826813 145.430174 16.1138612 129.328843 6.77322086 113.227513 16.1138612 102.282547 19.4826813 0.187307224 19.4826813 0.187307224 20.4682928 102.356406 20.4682928"></polygon>
                        <polygon id="Fill-33" points="145.086876 120.064632 129.329237 129.191394 113.674017 120.108984 102.430659 116.635689 0.187701141 116.635689 0.187701141 117.621301 102.281956 117.621301 113.227906 120.990121 129.329237 130.330761 145.429583 120.990121 156.375534 117.621301 258.469789 117.621301 258.469789 116.635689 156.301675 116.635689"></polygon>
                        <polygon id="Fill-35" points="113.683274 11.6300187 129.332586 2.05874532 145.049848 11.4240259 156.207529 15.871105 224.843513 15.871105 224.843513 14.8854935 156.395624 14.8854935 145.484141 10.5428892 129.325692 0.907551079 113.25292 10.7478964 102.266593 14.8854935 34.2677681 14.8854935 34.2677681 15.871105 102.356209 15.871105"></polygon>
                        <polygon id="Fill-37" points="144.979731 125.878261 129.331404 135.209045 113.600354 125.596376 102.445628 121.396686 34.2685559 121.396686 34.2685559 122.382297 102.266396 122.382297 113.170001 126.478499 129.325495 136.36024 145.414024 126.759398 156.395427 122.382297 224.844301 122.382297 224.844301 121.396686 156.301871 121.396686"></polygon>
                    </g>
                </g>
            </g>
        </g>
    </g>
</svg>
